<svg width="50" height="42" viewBox="0 0 50 42" fill="none" xmlns="http://www.w3.org/2000/svg">
<g filter="url(#filter0_dd_825_3512)">
<rect x="5" y="3" width="40" height="32" rx="6" fill="#212429" shape-rendering="crispEdges"/>
<path d="M27.5 18C27.5 18.1326 27.4473 18.2598 27.3536 18.3536C27.2598 18.4473 27.1326 18.5 27 18.5H23C22.8674 18.5 22.7402 18.4473 22.6464 18.3536C22.5527 18.2598 22.5 18.1326 22.5 18C22.5 17.8674 22.5527 17.7402 22.6464 17.6464C22.7402 17.5527 22.8674 17.5 23 17.5H27C27.1326 17.5 27.2598 17.5527 27.3536 17.6464C27.4473 17.7402 27.5 17.8674 27.5 18ZM27 19.5H23C22.8674 19.5 22.7402 19.5527 22.6464 19.6464C22.5527 19.7402 22.5 19.8674 22.5 20C22.5 20.1326 22.5527 20.2598 22.6464 20.3536C22.7402 20.4473 22.8674 20.5 23 20.5H27C27.1326 20.5 27.2598 20.4473 27.3536 20.3536C27.4473 20.2598 27.5 20.1326 27.5 20C27.5 19.8674 27.4473 19.7402 27.3536 19.6464C27.2598 19.5527 27.1326 19.5 27 19.5ZM31.5 18.75C31.4982 20.407 30.8391 21.9957 29.6674 23.1674C28.4957 24.3391 26.907 24.9982 25.25 25H19.9794C19.7197 24.9997 19.4708 24.8964 19.2872 24.7128C19.1036 24.5292 19.0003 24.2803 19 24.0206V18.75C19 17.0924 19.6585 15.5027 20.8306 14.3306C22.0027 13.1585 23.5924 12.5 25.25 12.5C26.9076 12.5 28.4973 13.1585 29.6694 14.3306C30.8415 15.5027 31.5 17.0924 31.5 18.75ZM30.5 18.75C30.5 17.3576 29.9469 16.0223 28.9623 15.0377C27.9777 14.0531 26.6424 13.5 25.25 13.5C23.8576 13.5 22.5223 14.0531 21.5377 15.0377C20.5531 16.0223 20 17.3576 20 18.75V24H25.25C26.6419 23.9985 27.9764 23.4449 28.9607 22.4607C29.9449 21.4764 30.4985 20.1419 30.5 18.75Z" fill="white"/>
</g>
<defs>
<filter id="filter0_dd_825_3512" x="0" y="0" width="50" height="42" filterUnits="userSpaceOnUse" color-interpolation-filters="sRGB">
<feFlood flood-opacity="0" result="BackgroundImageFix"/>
<feColorMatrix in="SourceAlpha" type="matrix" values="0 0 0 0 0 0 0 0 0 0 0 0 0 0 0 0 0 0 127 0" result="hardAlpha"/>
<feOffset dy="2"/>
<feGaussianBlur stdDeviation="2.5"/>
<feComposite in2="hardAlpha" operator="out"/>
<feColorMatrix type="matrix" values="0 0 0 0 0 0 0 0 0 0 0 0 0 0 0 0 0 0 0.08 0"/>
<feBlend mode="normal" in2="BackgroundImageFix" result="effect1_dropShadow_825_3512"/>
<feColorMatrix in="SourceAlpha" type="matrix" values="0 0 0 0 0 0 0 0 0 0 0 0 0 0 0 0 0 0 127 0" result="hardAlpha"/>
<feOffset dy="1"/>
<feGaussianBlur stdDeviation="0.5"/>
<feComposite in2="hardAlpha" operator="out"/>
<feColorMatrix type="matrix" values="0 0 0 0 0 0 0 0 0 0 0 0 0 0 0 0 0 0 0.12 0"/>
<feBlend mode="normal" in2="effect1_dropShadow_825_3512" result="effect2_dropShadow_825_3512"/>
<feBlend mode="normal" in="SourceGraphic" in2="effect2_dropShadow_825_3512" result="shape"/>
</filter>
</defs>
</svg>
