<svg width="32" height="32" viewBox="0 0 32 32" fill="none" xmlns="http://www.w3.org/2000/svg">
<rect x="0.5" y="0.5" width="31" height="31" rx="5.5" fill="white"/>
<path d="M21.5 10H13.5C13.3674 10 13.2402 10.0527 13.1464 10.1464C13.0527 10.2402 13 10.3674 13 10.5V13H10.5C10.3674 13 10.2402 13.0527 10.1464 13.1464C10.0527 13.2402 10 13.3674 10 13.5V21.5C10 21.6326 10.0527 21.7598 10.1464 21.8536C10.2402 21.9473 10.3674 22 10.5 22H18.5C18.6326 22 18.7598 21.9473 18.8536 21.8536C18.9473 21.7598 19 21.6326 19 21.5V19H21.5C21.6326 19 21.7598 18.9473 21.8536 18.8536C21.9473 18.7598 22 18.6326 22 18.5V10.5C22 10.3674 21.9473 10.2402 21.8536 10.1464C21.7598 10.0527 21.6326 10 21.5 10ZM18 21H11V14H18V21ZM21 18H19V13.5C19 13.3674 18.9473 13.2402 18.8536 13.1464C18.7598 13.0527 18.6326 13 18.5 13H14V11H21V18Z" fill="black"/>
<rect x="0.5" y="0.5" width="31" height="31" rx="5.5" stroke="#D5DBE1"/>
</svg>
