<svg width="32" height="32" viewBox="0 0 32 32" fill="none" xmlns="http://www.w3.org/2000/svg">
<rect x="0.5" y="0.5" width="31" height="31" rx="5.5" fill="white"/>
<path d="M22 11H10C9.86739 11 9.74021 11.0527 9.64645 11.1464C9.55268 11.2402 9.5 11.3674 9.5 11.5V20C9.5 20.2652 9.60536 20.5196 9.79289 20.7071C9.98043 20.8946 10.2348 21 10.5 21H21.5C21.7652 21 22.0196 20.8946 22.2071 20.7071C22.3946 20.5196 22.5 20.2652 22.5 20V11.5C22.5 11.3674 22.4473 11.2402 22.3536 11.1464C22.2598 11.0527 22.1326 11 22 11ZM20.7144 12L16 16.3219L11.2856 12H20.7144ZM21.5 20H10.5V12.6369L15.6619 17.3687C15.7541 17.4534 15.8748 17.5004 16 17.5004C16.1252 17.5004 16.2459 17.4534 16.3381 17.3687L21.5 12.6369V20Z" fill="black"/>
<rect x="0.5" y="0.5" width="31" height="31" rx="5.5" stroke="#D5DBE1"/>
</svg>
