<svg width="16" height="16" viewBox="0 0 16 16" fill="none" xmlns="http://www.w3.org/2000/svg">
<path fill-rule="evenodd" clip-rule="evenodd" d="M7.9987 2.26226C4.83055 2.26226 2.26226 4.83055 2.26226 7.9987C2.26226 11.1668 4.83055 13.7351 7.9987 13.7351C11.1668 13.7351 13.7351 11.1668 13.7351 7.9987C13.7351 4.83055 11.1668 2.26226 7.9987 2.26226ZM1.33203 7.9987C1.33203 4.3168 4.3168 1.33203 7.9987 1.33203C11.6806 1.33203 14.6654 4.3168 14.6654 7.9987C14.6654 11.6806 11.6806 14.6654 7.9987 14.6654C4.3168 14.6654 1.33203 11.6806 1.33203 7.9987ZM7.53358 5.51808C7.53358 5.2612 7.74182 5.05296 7.9987 5.05296H8.0049C8.26178 5.05296 8.47002 5.2612 8.47002 5.51808C8.47002 5.77495 8.26178 5.98319 8.0049 5.98319H7.9987C7.74182 5.98319 7.53358 5.77495 7.53358 5.51808ZM7.9987 7.53358C8.25557 7.53358 8.46381 7.74182 8.46381 7.9987V10.4793C8.46381 10.7362 8.25557 10.9444 7.9987 10.9444C7.74182 10.9444 7.53358 10.7362 7.53358 10.4793V7.9987C7.53358 7.74182 7.74182 7.53358 7.9987 7.53358Z" fill="#747E89"/>
</svg>
