<svg width="16" height="16" viewBox="0 0 16 16" fill="none" xmlns="http://www.w3.org/2000/svg">
<path d="M6.82867 10.876L4 8.04667L4.94267 7.104L6.82867 8.98934L10.5993 5.218L11.5427 6.16134L6.82867 10.8747V10.876Z" fill="black"/>
<path fill-rule="evenodd" clip-rule="evenodd" d="M0.667969 8C0.667969 3.95 3.9513 0.666668 8.0013 0.666668C12.0513 0.666668 15.3346 3.95 15.3346 8C15.3346 12.05 12.0513 15.3333 8.0013 15.3333C3.9513 15.3333 0.667969 12.05 0.667969 8ZM8.0013 14C7.21337 14 6.43316 13.8448 5.7052 13.5433C4.97725 13.2418 4.31581 12.7998 3.75866 12.2426C3.20151 11.6855 2.75955 11.0241 2.45802 10.2961C2.1565 9.56815 2.0013 8.78793 2.0013 8C2.0013 7.21207 2.1565 6.43185 2.45802 5.7039C2.75955 4.97595 3.20151 4.31451 3.75866 3.75736C4.31581 3.20021 4.97725 2.75825 5.7052 2.45672C6.43316 2.1552 7.21337 2 8.0013 2C9.5926 2 11.1187 2.63214 12.2439 3.75736C13.3692 4.88258 14.0013 6.4087 14.0013 8C14.0013 9.5913 13.3692 11.1174 12.2439 12.2426C11.1187 13.3679 9.5926 14 8.0013 14Z" fill="black"/>
</svg>
