<svg width="101" height="21" viewBox="0 0 101 21" fill="none" xmlns="http://www.w3.org/2000/svg">
<path d="M26.6541 6.25893V20.0807H30.2194V6.25893H26.6541ZM29.9843 0.86858C29.5512 0.425961 29.0315 0.204651 28.4236 0.204651C27.8157 0.204651 27.3223 0.425961 26.8892 0.86858C26.4561 1.3112 26.2411 1.82655 26.2411 2.4162C26.2411 3.00584 26.4561 3.5181 26.8892 3.94988C27.3223 4.38322 27.8327 4.59988 28.4236 4.59988C29.0145 4.59988 29.5512 4.38322 29.9843 3.94988C30.4174 3.5181 30.6339 3.00584 30.6339 2.4162C30.6339 1.82655 30.4174 1.3112 29.9843 0.86858Z" fill="#15211B"/>
<path d="M43.9501 0.730865V7.89169C42.9014 6.54681 41.4087 5.8736 39.4752 5.8736C37.5418 5.8736 36.0259 6.57776 34.7081 7.98764C33.3918 9.39752 32.7328 11.1262 32.7328 13.1722C32.7328 15.2181 33.3918 16.9452 34.7081 18.3551C36.0259 19.765 37.6145 20.4692 39.4752 20.4692C41.336 20.4692 42.9014 19.7975 43.9501 18.4511V20.0823H47.5154V0.730865H43.9501ZM42.8735 15.978C42.1543 16.7054 41.2432 17.069 40.1373 17.069C39.0313 17.069 38.1156 16.7054 37.3886 15.978C36.6601 15.2491 36.2966 14.3143 36.2966 13.1722C36.2966 12.03 36.6601 11.0937 37.3886 10.3663C38.1156 9.6374 39.0329 9.27371 40.1373 9.27371C41.2417 9.27371 42.1543 9.6374 42.8735 10.3663C43.5912 11.0937 43.9501 12.0285 43.9501 13.1722C43.9501 14.3158 43.5912 15.2491 42.8735 15.978Z" fill="#15211B"/>
<path d="M58.2083 0.343903C59.4055 0.343903 60.9708 0.537355 62.9059 0.924259V20.0822H59.3421V3.49485C59.0838 3.47628 58.7064 3.46699 58.2098 3.46699C56.2578 3.46699 55.2818 4.35223 55.2818 6.12116V6.25889H57.5757V9.68686H55.2818V20.0807H51.718V9.68686H49.7289V6.25889H51.718V6.12116C51.718 2.26914 53.8819 0.343903 58.2114 0.343903H58.2083Z" fill="#15211B"/>
<path d="M77.9344 7.98605C76.516 6.57618 74.7852 5.87201 72.7403 5.87201C70.6955 5.87201 68.9693 6.57618 67.5602 7.98605C66.1511 9.39593 65.4457 11.1246 65.4457 13.1706C65.4457 15.2165 66.1511 16.9437 67.5602 18.3535C68.9693 19.7634 70.6955 20.4676 72.7403 20.4676C74.7852 20.4676 76.516 19.7634 77.9344 18.3535C79.3528 16.9437 80.0612 15.215 80.0612 13.1706C80.0612 11.1262 79.3528 9.39593 77.9344 7.98605ZM75.4209 15.9068C74.7017 16.6249 73.8076 16.9854 72.7403 16.9854C71.6731 16.9854 70.7821 16.6249 70.0737 15.9068C69.3637 15.1887 69.0095 14.2756 69.0095 13.1706C69.0095 12.0656 69.3637 11.1525 70.0737 10.4328C70.7821 9.71474 71.6715 9.3557 72.7403 9.3557C73.8092 9.3557 74.7017 9.71474 75.4209 10.4328C76.1386 11.1525 76.4975 12.064 76.4975 13.1706C76.4975 14.2771 76.1386 15.1887 75.4209 15.9068Z" fill="#15211B"/>
<path d="M97.58 6.25894H101L96.9721 20.0823H93.4779L90.8654 11.705L88.2513 20.0823H84.7587L80.6984 6.25894H84.4664L86.8314 14.7461L89.348 6.25894H92.7215L95.2366 14.777L97.58 6.25894Z" fill="#15211B"/>
<path d="M7.48176 20.4413H2.12218C0.949722 20.4413 0 19.4911 0 18.318V12.9555C0 11.7824 0.949722 10.8322 2.12218 10.8322H7.48176C8.65422 10.8322 9.60394 11.7824 9.60394 12.9555V18.318C9.60394 19.4911 8.65422 20.4413 7.48176 20.4413Z" fill="#15211B"/>
<path d="M18.1298 10.8321H12.368C11.5962 10.8321 10.7687 10.8104 10.201 10.244L10.1855 10.2285C9.63178 9.67449 9.60394 8.88675 9.60394 8.1114C9.60394 7.98295 9.60394 7.85295 9.60394 7.7183V2.35581C9.60394 1.18272 8.65422 0.232483 7.48176 0.232483H2.12218C0.949722 0.232483 0 1.18272 0 2.35581V7.7183C0 8.8914 0.949722 9.84163 2.12218 9.84163H7.48176C7.54054 9.84163 7.63644 9.84163 7.69522 9.84163C8.498 9.84163 9.30077 10.0397 9.87463 10.6123C10.4516 11.1896 10.6465 11.9851 10.6465 12.8053C10.6465 12.8548 10.648 12.9059 10.648 12.957V18.3195C10.648 19.491 11.5977 20.4428 12.7702 20.4428H18.1298C19.3022 20.4428 20.252 19.4926 20.252 18.3195V12.957C20.252 11.7839 19.3022 10.8337 18.1298 10.8337V10.8321Z" fill="#15211B"/>
<path d="M20.3803 4.66645L19.5683 4.08609C19.4399 3.99323 19.3935 3.823 19.46 3.67907L19.8714 2.77062C19.9658 2.56324 19.8281 2.32491 19.6023 2.30324L18.6093 2.20574C18.4515 2.19181 18.3262 2.06646 18.3107 1.9086L18.2133 0.915027C18.1916 0.689075 17.9534 0.551338 17.7477 0.645743L16.8382 1.05895C16.6944 1.12395 16.5242 1.07908 16.433 0.950623L15.8514 0.138125C15.7199 -0.0460416 15.4446 -0.0460416 15.3131 0.138125L14.7331 0.950623C14.6402 1.07908 14.4701 1.1255 14.3262 1.0605L13.4167 0.647287C13.211 0.552883 12.9728 0.690624 12.9512 0.916576L12.8537 1.91014C12.8382 2.068 12.7145 2.19336 12.5567 2.20884L11.5637 2.30633C11.3379 2.328 11.2002 2.56633 11.2946 2.77372L11.7076 3.68217C11.7725 3.82609 11.7277 3.99633 11.5977 4.08919L10.7872 4.66955C10.6032 4.80264 10.6032 5.07657 10.7872 5.20966L11.5993 5.79002C11.7277 5.88133 11.7741 6.05157 11.7076 6.19704L11.2961 7.10549C11.2018 7.31287 11.3394 7.54966 11.5652 7.57287L12.5583 7.66883C12.7161 7.6843 12.8413 7.80966 12.8568 7.96597L12.9543 8.95954C12.9759 9.18704 13.2141 9.32323 13.4198 9.23037L14.3293 8.81716C14.4732 8.75061 14.6433 8.79704 14.7346 8.92549L15.3162 9.73644C15.4477 9.92216 15.723 9.92216 15.8545 9.73644L16.4361 8.92394C16.5273 8.79549 16.6975 8.75061 16.8413 8.81561L17.7508 9.22727C17.9565 9.32168 18.1947 9.18394 18.2164 8.95799L18.3138 7.96442C18.3293 7.80656 18.4531 7.68275 18.6108 7.66728L19.6039 7.56978C19.8297 7.54656 19.9673 7.30978 19.873 7.1024L19.46 6.19395C19.395 6.04847 19.4399 5.87823 19.5698 5.78693L20.3803 5.20502C20.566 5.07347 20.5644 4.798 20.3803 4.66645ZM17.8962 3.94681L15.0842 6.75264C15.0347 6.80061 14.9558 6.80216 14.9063 6.75264L13.5095 5.37216C13.4585 5.32264 13.4585 5.24217 13.5095 5.19264L14.0355 4.66645C14.0849 4.61692 14.1638 4.61693 14.2133 4.66335L14.9249 5.34585C14.9743 5.39383 15.0548 5.39228 15.1027 5.34276L17.1708 3.24109C17.2187 3.19157 17.2992 3.19002 17.3486 3.238L17.8962 3.76574C17.9488 3.81526 17.9488 3.89574 17.8978 3.94681H17.8962Z" fill="#15211B"/>
</svg>
