<svg width="1154" height="644" viewBox="0 0 1154 644" fill="none" xmlns="http://www.w3.org/2000/svg">
<g style="mix-blend-mode:multiply" opacity="0.45">
<path opacity="0.2" d="M863.877 200.679L855.388 209.164C851.399 213.119 844.973 213.119 841.019 209.164L832.53 200.679C828.576 196.721 828.576 190.296 832.53 186.341L841.019 177.821C844.973 173.866 851.399 173.866 855.388 177.821L863.877 186.341C867.834 190.299 867.834 196.721 863.877 200.679ZM573.833 16.4334L568.433 21.8335C565.896 24.352 561.808 24.352 559.289 21.8335L553.889 16.4334C551.37 13.9149 551.37 9.82663 553.889 7.31127L559.289 1.88891C561.808 -0.629636 565.893 -0.629636 568.433 1.88891L573.833 7.31127C576.349 9.82981 576.349 13.9149 573.833 16.4334ZM1151.46 78.1298L1146.66 82.9217C1144.41 85.1569 1140.78 85.1569 1138.55 82.9217L1133.76 78.1298C1131.52 75.8946 1131.52 72.268 1133.76 70.0329L1138.55 65.2219C1140.79 62.9867 1144.41 62.9867 1146.66 65.2219L1151.46 70.0329C1153.69 72.268 1153.69 75.8946 1151.46 78.1298Z" fill="#59C3FF"/>
<path opacity="0.2" d="M311.877 385.679L303.388 394.164C299.399 398.119 292.973 398.119 289.019 394.164L280.53 385.679C276.576 381.721 276.576 375.296 280.53 371.341L289.019 362.821C292.973 358.866 299.399 358.866 303.388 362.821L311.877 371.341C315.834 375.299 315.834 381.721 311.877 385.679ZM21.8335 201.433L16.4334 206.833C13.8958 209.352 9.80752 209.352 7.28898 206.833L1.88891 201.433C-0.629636 198.915 -0.629636 194.827 1.88891 192.311L7.28898 186.889C9.80752 184.37 13.8926 184.37 16.4334 186.889L21.8335 192.311C24.3488 194.83 24.3488 198.915 21.8335 201.433ZM599.456 263.13L594.664 267.922C592.409 270.157 588.783 270.157 586.551 267.922L581.759 263.13C579.524 260.895 579.524 257.268 581.759 255.033L586.551 250.222C588.786 247.987 592.413 247.987 594.664 250.222L599.456 255.033C601.688 257.268 601.688 260.895 599.456 263.13Z" fill="#59C3FF"/>
<path d="M385.08 206H354.918C351.649 206 349 203.35 349 200.082V169.918C349 166.649 351.65 164 354.918 164H385.08C388.349 164 390.998 166.65 390.998 169.918V200.081C390.998 203.35 388.348 206 385.08 206Z" fill="#96D2F4"/>
<path d="M381.172 185.49C381.172 191.751 376.095 196.827 369.835 196.827C363.57 196.827 358.494 191.751 358.494 185.49C358.494 179.225 363.57 174.149 369.835 174.149C369.89 174.149 369.947 174.149 369.997 174.153C376.02 174.234 380.904 179.013 381.157 185C381.166 185.161 381.172 185.323 381.172 185.49Z" fill="#F1F8FC"/>
<path d="M386.573 187.553H370.319L369.997 169.202C378.768 169.321 385.882 176.28 386.573 187.553Z" fill="white"/>
<path d="M1060 327.77H1124.84V327.27H1060.5V287.76H1045.87V288.26H1060V327.77Z" fill="#064CD0"/>
<path d="M1124.77 328.84C1124.04 328.84 1123.45 328.249 1123.45 327.52C1123.45 326.791 1124.04 326.2 1124.77 326.2C1125.5 326.2 1126.09 326.791 1126.09 327.52C1126.09 328.249 1125.5 328.84 1124.77 328.84Z" fill="#064CD0"/>
<path d="M1045.91 289.32C1045.65 289.32 1045.39 289.243 1045.18 289.097C1044.96 288.952 1044.79 288.746 1044.69 288.505C1044.59 288.264 1044.56 287.998 1044.62 287.742C1044.67 287.486 1044.79 287.251 1044.98 287.067C1045.16 286.882 1045.4 286.756 1045.65 286.705C1045.91 286.654 1046.17 286.681 1046.42 286.78C1046.66 286.88 1046.86 287.05 1047.01 287.267C1047.15 287.484 1047.23 287.739 1047.23 288C1047.23 288.35 1047.09 288.686 1046.84 288.933C1046.6 289.181 1046.26 289.32 1045.91 289.32Z" fill="#064CD0"/>
<path d="M909.35 326.77H1020.84V326.27H909.85V271.82H896.05V272.32H909.35V326.77Z" fill="#064CD0"/>
<path d="M1020.77 327.84C1021.03 327.842 1021.29 327.766 1021.51 327.622C1021.72 327.478 1021.9 327.273 1022 327.032C1022.1 326.791 1022.13 326.525 1022.08 326.269C1022.03 326.012 1021.9 325.776 1021.72 325.59C1021.53 325.405 1021.3 325.278 1021.04 325.226C1020.78 325.174 1020.52 325.2 1020.28 325.299C1020.04 325.399 1019.83 325.568 1019.68 325.786C1019.54 326.003 1019.46 326.258 1019.46 326.52C1019.46 326.868 1019.6 327.203 1019.84 327.45C1020.09 327.697 1020.42 327.837 1020.77 327.84Z" fill="#064CD0"/>
<path d="M896.12 273.39C895.859 273.39 895.604 273.313 895.387 273.168C895.17 273.022 895.001 272.816 894.901 272.575C894.801 272.334 894.775 272.069 894.826 271.812C894.876 271.556 895.002 271.321 895.187 271.137C895.371 270.952 895.607 270.826 895.863 270.775C896.119 270.724 896.384 270.751 896.625 270.85C896.867 270.95 897.073 271.12 897.218 271.337C897.363 271.554 897.44 271.809 897.44 272.07C897.44 272.42 897.301 272.756 897.054 273.003C896.806 273.251 896.47 273.39 896.12 273.39Z" fill="#064CD0"/>
<path d="M787.07 236.3H787.57V274.15H787.07V236.3Z" fill="#064CD0"/>
<path d="M786 274.08C785.998 274.342 786.074 274.599 786.218 274.817C786.363 275.036 786.569 275.206 786.81 275.308C787.052 275.409 787.318 275.436 787.575 275.385C787.832 275.335 788.068 275.209 788.254 275.023C788.439 274.838 788.565 274.602 788.615 274.345C788.666 274.088 788.639 273.822 788.538 273.58C788.437 273.339 788.266 273.133 788.047 272.988C787.829 272.844 787.572 272.768 787.31 272.77C786.964 272.773 786.632 272.912 786.387 273.157C786.142 273.402 786.003 273.733 786 274.08Z" fill="#064CD0"/>
<path d="M786 236.32C786 236.058 786.078 235.803 786.223 235.586C786.369 235.368 786.576 235.199 786.817 235.1C787.059 235 787.325 234.974 787.581 235.026C787.838 235.078 788.073 235.205 788.257 235.39C788.441 235.576 788.566 235.812 788.616 236.069C788.666 236.325 788.638 236.591 788.537 236.832C788.435 237.073 788.265 237.279 788.046 237.422C787.828 237.566 787.572 237.642 787.31 237.64C787.137 237.64 786.966 237.606 786.807 237.539C786.647 237.473 786.502 237.375 786.38 237.253C786.258 237.13 786.162 236.984 786.097 236.824C786.032 236.664 785.999 236.493 786 236.32Z" fill="#064CD0"/>
<path d="M71 626.5H1132" stroke="black" stroke-opacity="0.1"/>
<rect x="220.194" y="470.1" width="110.8" height="156.8" fill="white" stroke="black" stroke-width="0.2"/>
<path d="M892.729 532.904C891.496 537.403 890.678 542.006 890.287 546.655C890.416 546.887 890.39 547.735 890.287 547.504C890.287 548.262 889.118 548.12 889.118 547.375V545.936C886.432 542.607 882.537 540.486 879.376 537.582C876.837 535.306 874.989 532.362 874.042 529.087C871.472 520.091 873.875 510.529 870.727 501.533C868.015 493.822 863.157 487.036 859.045 480.019C854.701 472.591 851.488 464.777 851.166 456.076C850.909 449.419 851.706 440.539 856.783 435.514C862.155 430.219 868.825 434.228 872.95 438.906C884.915 452.645 890.416 469.969 892.626 487.679C893.911 497.472 895.196 507.329 894.837 517.238C894.65 522.516 893.944 527.764 892.729 532.904Z" fill="white"/>
<path d="M890.338 550.254C890.996 541.007 890.889 531.723 890.017 522.494C890.017 522.494 890.017 522.494 890.017 522.391C890.158 514.886 890.763 507.406 890.467 499.901C890.1 491.772 888.995 483.693 887.164 475.765C887.164 475.675 886.997 475.765 887.01 475.765C888.463 483.554 889.322 491.442 889.58 499.361C889.734 503.645 889.704 507.886 889.49 512.084C889.413 513.459 889.285 514.847 889.195 516.235C886.079 495.154 878.461 474.992 866.858 457.117C866.704 456.873 866.267 457.117 866.421 457.374C874.739 470.977 880.9 485.787 884.684 501.276C878.952 490.647 870.277 481.895 863.838 471.717C863.838 471.652 863.71 471.717 863.735 471.717C869.519 483.103 879.067 492.074 885.159 503.293C886.213 507.852 887.07 512.457 887.73 517.109C888.585 523.475 889.044 529.887 889.105 536.31C885.609 529.781 881.985 523.522 879.119 516.608C879.042 516.428 878.785 516.608 878.836 516.736C881.278 523.92 884.542 531.657 889.117 537.775C889.117 542.324 889.002 546.874 888.732 551.41C888.025 563.529 885.956 575.494 884.992 587.575C884.996 587.641 885.024 587.704 885.069 587.752C885.115 587.8 885.176 587.83 885.242 587.838C885.307 587.845 885.374 587.83 885.429 587.793C885.485 587.757 885.525 587.703 885.545 587.639C887.991 575.301 889.593 562.81 890.338 550.254Z" fill="#8BC2E1"/>
<path d="M877.474 456.77C877.474 456.693 877.307 456.77 877.332 456.835C879.314 462.945 880.987 469.152 882.344 475.431C882.349 475.461 882.359 475.491 882.374 475.517C882.39 475.544 882.41 475.567 882.435 475.585C882.459 475.604 882.487 475.617 882.517 475.625C882.547 475.633 882.578 475.634 882.608 475.63C882.638 475.626 882.668 475.616 882.694 475.6C882.72 475.585 882.744 475.564 882.762 475.54C882.781 475.515 882.794 475.487 882.802 475.458C882.81 475.428 882.811 475.397 882.807 475.367C881.935 468.943 880.138 462.68 877.474 456.77Z" fill="#8BC2E1"/>
<path d="M933.752 482.435C932.26 486.027 930.543 489.521 928.611 492.896C924.627 500.132 920.476 506.776 919.717 515.194C919.59 518.968 919.052 522.718 918.111 526.375C917.067 529.491 915.568 532.436 913.664 535.114C909.333 541.412 903.936 546.835 899.939 553.364C895.768 560.177 892.689 567.601 890.814 575.366C890.711 575.79 890.043 575.674 890.146 575.25C890.151 575.216 890.151 575.181 890.146 575.147C890.14 575.133 890.137 575.118 890.137 575.102C890.137 575.087 890.14 575.072 890.146 575.057C889.516 556.988 890.955 538.764 896.469 521.453C898.908 513.841 901.831 506.394 905.221 499.155C908 492.758 912.019 486.975 917.044 482.139C920.411 479.119 927.711 473.375 932.466 476.408C934.767 477.873 934.6 480.173 933.752 482.435Z" fill="white"/>
<path d="M915.528 523.419C912.344 528.674 908.837 533.725 905.028 538.546C903.267 540.821 901.494 543.095 899.746 545.383C898.923 546.463 897.998 547.542 897.175 548.699C897.651 546.797 898.114 544.843 898.602 542.993C900.941 533.855 903.177 524.653 906.647 515.863C910.21 507.36 914.407 499.137 919.203 491.264C919.332 491.046 918.985 490.904 918.869 491.097C915.014 497.382 911.158 503.653 907.958 510.285C906.184 513.978 904.639 517.776 903.331 521.659C904.801 513.417 906.858 505.291 909.487 497.343C909.487 497.279 909.41 497.228 909.384 497.343C905.928 505.384 903.759 513.92 902.959 522.635C902.179 524.992 901.455 527.361 900.787 529.742C897.934 539.857 895.44 550.074 893.076 560.33C893.041 553.59 893.626 546.862 894.823 540.229C894.823 540.199 894.811 540.169 894.79 540.148C894.768 540.126 894.738 540.114 894.708 540.114C894.677 540.114 894.648 540.126 894.626 540.148C894.604 540.169 894.592 540.199 894.592 540.229C892.825 547.146 892.234 554.31 892.844 561.422C891.988 565.312 891.131 569.214 890.274 573.13C888.5 581.458 886.316 589.94 885.287 598.396C885.279 598.441 885.288 598.487 885.314 598.524C885.339 598.561 885.378 598.587 885.422 598.596C885.467 598.604 885.513 598.595 885.55 598.569C885.587 598.544 885.613 598.505 885.622 598.461C886.907 593.898 887.601 589.169 888.616 584.555C889.631 579.941 890.685 575.302 891.765 570.675C893.333 563.954 894.978 557.245 896.648 550.549C897.767 548.082 899.938 545.91 901.558 543.841C903.177 541.772 905.118 539.33 906.853 537.029C910.099 532.776 913.004 528.272 915.54 523.561C915.759 523.394 915.579 523.317 915.528 523.419Z" fill="#8BC2E1"/>
<path d="M916.299 515.683C912.324 520.763 908.879 526.236 906.017 532.017C906.017 532.094 906.094 532.171 906.146 532.094C909.603 526.671 913.009 521.209 916.427 515.785C916.517 515.695 916.363 515.605 916.299 515.683Z" fill="#8BC2E1"/>
<path d="M839.343 499.579C841.695 503.602 844.368 508.447 843.352 513.292C842.723 516.364 840.474 518.857 840.075 521.98C839.163 528.881 846.051 533.444 851.025 536.708C863.44 544.856 880.455 552.13 882.717 568.747C882.807 569.339 883.823 569.184 883.745 568.606C883.75 568.572 883.75 568.537 883.745 568.503C883.745 568.503 883.81 568.503 883.81 568.4C885.436 560.005 885.358 551.369 883.578 543.005C881.728 534.433 877.988 526.722 873.567 519.191C866.1 506.455 858.145 493.398 846.887 483.643C843.789 480.944 837.364 476.086 834.793 482.178C832.223 488.27 836.477 494.657 839.343 499.579Z" fill="white"/>
<path d="M850.703 526.594C858.941 535.5 872.024 540.499 879.106 550.472C875.141 535.281 867.657 521.237 857.258 509.475C857.211 509.413 857.189 509.337 857.194 509.259C857.2 509.182 857.233 509.11 857.288 509.055C857.342 509 857.415 508.967 857.492 508.962C857.569 508.956 857.646 508.979 857.708 509.025C865.287 516.386 871.347 525.162 875.546 534.857C873.58 528.09 870.999 521.516 867.835 515.22C867.815 515.171 867.814 515.117 867.831 515.068C867.848 515.018 867.882 514.977 867.927 514.95C867.972 514.924 868.025 514.914 868.077 514.924C868.128 514.933 868.175 514.961 868.207 515.001C872.111 521.88 874.904 529.331 876.484 537.081C885.814 559.674 886.675 586.174 884.722 609.988C884.722 610.06 884.694 610.129 884.643 610.179C884.592 610.23 884.524 610.258 884.452 610.258C884.38 610.258 884.312 610.23 884.261 610.179C884.211 610.129 884.182 610.06 884.182 609.988C884.722 591.225 884.414 572.127 879.915 553.801C879.825 553.415 879.723 553.042 879.62 552.657C871.909 541.913 858.89 536.939 850.511 526.735C850.485 526.632 850.613 526.491 850.703 526.594Z" fill="#8BC2E1"/>
<path d="M848.802 518.947C853.12 522.905 857.374 526.953 861.653 530.925C861.653 530.925 861.653 531.04 861.653 531.002C856.758 527.721 852.346 523.771 848.545 519.268C848.403 519.024 848.622 518.78 848.802 518.947Z" fill="#8BC2E1"/>
<path d="M848.12 501.764C851.935 508.038 856.259 513.987 861.049 519.551C861.049 519.551 861.049 519.731 860.934 519.654C855.57 514.555 851.154 508.546 847.889 501.906C847.881 501.876 847.883 501.845 847.894 501.817C847.906 501.788 847.926 501.764 847.952 501.749C847.978 501.733 848.008 501.726 848.039 501.728C848.069 501.731 848.098 501.744 848.12 501.764Z" fill="#8BC2E1"/>
<path d="M867.565 626.786H905.414L900.311 575.88H873.4L867.565 626.786Z" fill="#96D2F4"/>
<path d="M872.449 584.157H901.147L900.311 575.88H873.387L872.449 584.157Z" fill="#263238" fill-opacity="0.1"/>
<path d="M868.76 578.373H904.231V570.238H868.76V578.373Z" fill="#96D2F4"/>
<rect x="831" y="239" width="61" height="55" rx="4" fill="#96D2F4"/>
<path d="M844 253H879" stroke="white"/>
<path d="M844 266.5H879" stroke="white"/>
<path d="M844 281.5H879" stroke="white"/>
<rect x="1085.5" y="223.5" width="60" height="43" rx="3.5" stroke="#96D2F4"/>
<path d="M1098 239H1133" stroke="#96D2F4"/>
<path d="M1098 251H1133" stroke="#96D2F4"/>
<path d="M250.44 462.382V470.023H306.206C308 470.023 309.452 468.571 309.452 466.778V466.466C309.452 464.211 307.622 462.381 305.371 462.381H250.44V462.382Z" fill="#96D2F4"/>
<path d="M218.437 426H268.295C270.98 426 273.374 427.687 274.28 430.214L288.523 470.021H233.363C230.083 470.021 227.157 467.96 226.053 464.872L214.263 431.926C213.229 429.04 215.371 426 218.437 426Z" fill="#96D2F4"/>
<path d="M243.438 448.012C243.824 450.426 246.092 452.384 248.507 452.384C250.926 452.384 252.569 450.426 252.183 448.012C251.798 445.597 249.524 443.64 247.11 443.64C244.694 443.638 243.052 445.596 243.438 448.012Z" fill="white"/>
<path d="M174.241 270.678H64.7177C63.848 270.678 63.1287 269.958 63.1287 269.053V237.125C63.1287 236.219 63.848 235.5 64.7177 235.5H174.241C175.111 235.5 175.83 236.219 175.83 237.125V269.053C175.83 269.957 175.111 270.678 174.241 270.678Z" stroke="#96D2F4"/>
<path d="M84.2312 360.975H51.7999C51.3589 360.975 51 360.618 51 360.175V336.054C51 335.613 51.3571 335.254 51.7999 335.254H84.233C84.674 335.254 85.0329 335.611 85.0329 336.054V360.175C85.0311 360.618 84.6722 360.975 84.2312 360.975Z" fill="#96D2F4"/>
<path d="M56.1682 344.179H80.7174" stroke="white" stroke-width="0.2"/>
<path d="M56.1682 352.578H80.7174" stroke="white" stroke-width="0.2"/>
<path d="M191.765 360.975H159.332C158.891 360.975 158.532 360.618 158.532 360.175V336.054C158.532 335.613 158.889 335.254 159.332 335.254H191.765C192.206 335.254 192.565 335.611 192.565 336.054V360.175C192.563 360.618 192.206 360.975 191.765 360.975Z" fill="#96D2F4"/>
<path d="M138.5 360.975H106.067C105.625 360.975 105.267 360.618 105.267 360.175V336.054C105.267 335.613 105.624 335.254 106.067 335.254H138.5C138.941 335.254 139.3 335.611 139.3 336.054V360.175C139.3 360.618 138.941 360.975 138.5 360.975Z" fill="#96D2F4"/>
<path d="M110.435 344.825H134.984" stroke="white" stroke-width="0.2"/>
<path d="M110.435 352.578H134.984" stroke="white" stroke-width="0.2"/>
<path d="M163.41 344.179H187.959" stroke="white" stroke-width="0.5"/>
<path d="M163.41 352.578H187.959" stroke="white" stroke-width="0.5"/>
<path d="M155.827 246.126H84.5557C84.1843 246.126 83.8843 245.826 83.8843 245.455C83.8843 245.083 84.186 244.783 84.5557 244.783H155.827C156.198 244.783 156.498 245.083 156.498 245.455C156.498 245.826 156.198 246.126 155.827 246.126Z" fill="#96D2F4"/>
<path d="M155.827 252.94H84.5557C84.1843 252.94 83.8843 252.64 83.8843 252.268C83.8843 251.897 84.186 251.597 84.5557 251.597H155.827C156.198 251.597 156.498 251.897 156.498 252.268C156.498 252.638 156.198 252.94 155.827 252.94Z" fill="#96D2F4"/>
<path d="M145.613 259.751H94.769C94.3976 259.751 94.0977 259.451 94.0977 259.08C94.0977 258.708 94.3994 258.408 94.769 258.408H145.611C145.983 258.408 146.283 258.708 146.283 259.08C146.284 259.451 145.983 259.751 145.613 259.751Z" fill="#96D2F4"/>
<path d="M121.887 330.143C121.984 330.241 122.143 330.241 122.24 330.143L123.831 328.552C123.929 328.455 123.929 328.296 123.831 328.199C123.734 328.101 123.575 328.101 123.478 328.199L122.063 329.613L120.649 328.199C120.552 328.101 120.393 328.101 120.296 328.199C120.198 328.296 120.198 328.455 120.296 328.552L121.887 330.143ZM121.813 271.824V329.967H122.313V271.824H121.813Z" fill="#064CD0"/>
<path d="M66.9741 329.497C67.0717 329.595 67.23 329.595 67.3277 329.497L68.9186 327.906C69.0163 327.809 69.0163 327.65 68.9186 327.553C68.821 327.455 68.6627 327.455 68.5651 327.553L67.1509 328.967L65.7367 327.553C65.639 327.455 65.4807 327.455 65.3831 327.553C65.2855 327.65 65.2855 327.809 65.3831 327.906L66.9741 329.497ZM174.861 329.497C174.959 329.595 175.117 329.595 175.215 329.497L176.806 327.906C176.904 327.809 176.904 327.65 176.806 327.553C176.708 327.455 176.55 327.455 176.452 327.553L175.038 328.967L173.624 327.553C173.526 327.455 173.368 327.455 173.27 327.553C173.173 327.65 173.173 327.809 173.27 327.906L174.861 329.497ZM67.4009 329.321V300.665H66.9009V329.321H67.4009ZM70.1509 297.915H172.038V297.415H70.1509V297.915ZM174.788 300.665V329.321H175.288V300.665H174.788ZM172.038 297.915C173.557 297.915 174.788 299.146 174.788 300.665H175.288C175.288 298.87 173.833 297.415 172.038 297.415V297.915ZM67.4009 300.665C67.4009 299.146 68.6321 297.915 70.1509 297.915V297.415C68.356 297.415 66.9009 298.87 66.9009 300.665H67.4009Z" fill="#064CD0"/>
</g>
<path d="M1079.76 569.279C1079.76 569.279 1082.22 616.719 1082.22 616.749C1082.11 625.509 1081.85 633.199 1081.35 637.159C1081.35 637.179 1081.35 637.2 1081.35 637.219C1081.33 638.159 1081.1 639.083 1080.67 639.919C1080.67 639.919 1080.67 639.919 1080.62 639.979C1077.99 641.709 1007.9 642.839 1005.44 642.059C1002.98 641.279 1005.03 634.209 1007.71 631.999C1010.39 629.789 1037.04 617.349 1037.04 617.349L1036.74 569.939L1079.76 569.279Z" fill="#AD6359"/>
<path d="M1082.4 607.339C1082.4 607.339 1082.22 616.719 1082.22 616.749C1082.11 625.509 1081.85 633.199 1081.35 637.159C1081.35 637.179 1081.35 637.2 1081.35 637.219C1081.23 638.143 1081 639.049 1080.67 639.919C1080.67 639.919 1080.67 639.919 1080.62 639.979C1077.99 641.709 1007.9 642.839 1005.44 642.059C1002.98 641.279 1005.03 634.209 1007.71 631.999C1010.39 629.789 1037.04 617.349 1037.04 617.349L1037.09 607.799L1082.4 607.339Z" fill="white"/>
<path d="M1032.74 617.329C1037.42 616.609 1043.08 617.499 1046.52 620.919C1046.66 621.049 1046.47 621.239 1046.32 621.189C1041.92 619.616 1037.37 618.519 1032.74 617.919C1032.67 617.907 1032.61 617.87 1032.56 617.816C1032.52 617.762 1032.49 617.694 1032.49 617.624C1032.49 617.554 1032.52 617.486 1032.56 617.432C1032.61 617.378 1032.67 617.342 1032.74 617.329Z" fill="#263238"/>
<path d="M1029.32 619.249C1034 618.529 1039.66 619.419 1043.11 622.839C1043.24 622.969 1043.05 623.159 1042.9 623.109C1038.5 621.535 1033.95 620.439 1029.32 619.839C1029.25 619.826 1029.19 619.79 1029.14 619.736C1029.1 619.682 1029.07 619.614 1029.07 619.544C1029.07 619.474 1029.1 619.406 1029.14 619.352C1029.19 619.298 1029.25 619.262 1029.32 619.249Z" fill="#263238"/>
<path d="M1025.91 621.169C1030.58 620.439 1036.24 621.329 1039.69 624.759C1039.82 624.889 1039.63 625.079 1039.48 625.019C1035.09 623.451 1030.54 622.355 1025.91 621.749C1025.83 621.749 1025.76 621.719 1025.71 621.664C1025.65 621.61 1025.62 621.536 1025.62 621.459C1025.62 621.382 1025.65 621.309 1025.71 621.254C1025.76 621.2 1025.83 621.169 1025.91 621.169Z" fill="#263238"/>
<path d="M1005.43 642.059C1007.89 642.849 1077.97 641.719 1080.61 639.979C1081.61 639.329 1082.06 629.109 1082.22 616.749V616.359L1037 616.589V617.349C1037 617.349 1010.37 629.779 1007.67 631.999C1004.97 634.219 1002.97 641.289 1005.43 642.059Z" fill="#263238" fill-opacity="0.1"/>
<path d="M1006.18 639.329C1017.99 638.849 1065.66 638.029 1077.37 638.449C1077.47 638.449 1077.47 638.519 1077.37 638.519C1065.68 639.259 1018 639.689 1006.18 639.519C1005.94 639.519 1005.93 639.339 1006.18 639.329Z" fill="#96D2F4"/>
<path d="M1086.06 616.749L1032.74 617.349C1032.74 617.349 1031.57 530.869 1031.62 503.349C1031.68 471.909 1036.39 378.069 1036.39 378.069L1074.29 378.449C1078.3 387.925 1081.07 397.876 1082.54 408.059C1083.15 412.449 1082.46 425.219 1080.95 431.059L1079.59 507.439L1086.06 616.749Z" fill="#96D2F4"/>
<path d="M1039.78 562.139C1039.33 548.479 1039.06 531.719 1038.78 518.059C1038.3 490.726 1038.37 463.393 1039 436.059C1039.34 420.729 1039.9 405.409 1040.51 390.059C1040.51 389.879 1040.25 389.889 1040.24 390.059C1038.52 417.479 1037.7 444.969 1037.39 472.439C1037.09 499.759 1037.39 530.199 1038.44 557.509C1039.04 572.839 1039.83 588.179 1041.12 603.459C1041.13 603.482 1041.14 603.501 1041.16 603.515C1041.18 603.529 1041.2 603.536 1041.23 603.536C1041.25 603.536 1041.27 603.529 1041.29 603.515C1041.31 603.501 1041.32 603.482 1041.33 603.459C1040.89 589.719 1040.24 575.929 1039.78 562.139Z" fill="#F1F8FC"/>
<path d="M1039.47 609.179C1049.66 608.489 1059.9 608.479 1070.11 608.669C1072.99 608.729 1075.88 608.809 1078.76 608.949C1078.78 608.949 1078.8 608.958 1078.82 608.973C1078.83 608.988 1078.84 609.008 1078.84 609.029C1078.84 609.051 1078.83 609.071 1078.82 609.086C1078.8 609.101 1078.78 609.109 1078.76 609.109C1068.58 609.739 1058.33 609.859 1048.13 609.659C1045.24 609.599 1042.36 609.509 1039.48 609.349C1039.46 609.344 1039.45 609.334 1039.43 609.319C1039.42 609.305 1039.42 609.287 1039.41 609.268C1039.41 609.249 1039.42 609.231 1039.43 609.215C1039.44 609.199 1039.45 609.186 1039.47 609.179Z" fill="#37474F"/>
<path d="M1012.11 573.979L1011.94 617.979C1011.83 626.749 1011.57 634.429 1011.07 638.389C1011.08 638.412 1011.08 638.436 1011.07 638.459C1011.05 639.399 1010.82 640.323 1010.39 641.159L1010.34 641.209C1007.7 642.949 937.62 644.079 935.16 643.289C932.7 642.499 934.74 635.439 937.43 633.229C940.12 631.019 966.76 618.579 966.76 618.579L969.34 574.079L1012.11 573.979Z" fill="#AD6359"/>
<path d="M1012.11 608.599C1012.11 608.599 1011.94 617.979 1011.94 618.009C1011.83 626.779 1011.57 634.459 1011.07 638.419C1011.08 638.442 1011.08 638.466 1011.07 638.489C1010.95 639.412 1010.72 640.318 1010.39 641.189L1010.34 641.239C1007.7 642.979 937.62 644.109 935.16 643.319C932.7 642.529 934.74 635.469 937.43 633.259C940.12 631.049 966.76 618.609 966.76 618.609L966.81 609.059L1012.11 608.599Z" fill="white"/>
<path d="M962.43 618.589C967.1 617.869 972.77 618.759 976.21 622.179C976.35 622.319 976.16 622.499 976.01 622.449C971.614 620.876 967.061 619.779 962.43 619.179C962.361 619.167 962.299 619.13 962.254 619.076C962.209 619.022 962.185 618.954 962.185 618.884C962.185 618.814 962.209 618.746 962.254 618.692C962.299 618.638 962.361 618.602 962.43 618.589Z" fill="#263238"/>
<path d="M959.01 620.509C963.69 619.789 969.35 620.679 972.8 624.099C972.93 624.229 972.74 624.419 972.59 624.369C968.194 622.796 963.641 621.699 959.01 621.099C958.941 621.087 958.879 621.05 958.834 620.996C958.789 620.942 958.765 620.875 958.765 620.804C958.765 620.734 958.789 620.666 958.834 620.613C958.879 620.559 958.941 620.522 959.01 620.509Z" fill="#263238"/>
<path d="M955.6 622.439C960.27 621.719 965.93 622.609 969.38 626.029C969.51 626.159 969.32 626.349 969.17 626.299C964.777 624.727 960.228 623.63 955.6 623.029C955.531 623.017 955.469 622.98 955.424 622.926C955.379 622.872 955.355 622.804 955.355 622.734C955.355 622.664 955.379 622.596 955.424 622.542C955.469 622.489 955.531 622.452 955.6 622.439Z" fill="#263238"/>
<path d="M935.11 643.319C937.57 644.109 1007.65 642.979 1010.29 641.239C1011.29 640.599 1011.73 630.379 1011.9 618.009V617.619L966.68 617.849V618.609C966.68 618.609 940.05 631.049 937.35 633.259C934.65 635.469 932.66 642.549 935.11 643.319Z" fill="#263238" fill-opacity="0.1"/>
<path d="M935.87 640.589C947.68 640.109 995.35 639.289 1007.06 639.709C1007.16 639.709 1007.16 639.779 1007.06 639.789C995.37 640.519 947.69 640.959 935.87 640.789C935.62 640.779 935.62 640.599 935.87 640.589Z" fill="#96D2F4"/>
<path d="M1051.82 426.749C1051.82 426.749 1026.11 493.079 1023.63 503.689C1021.29 513.689 1017.15 618.009 1017.15 618.009L964.9 617.619C964.9 617.619 972.25 512.179 973.18 501.439C974.39 487.439 986.63 455.439 999.59 421.139C1005.11 406.629 1012.47 392.439 1016.35 377.869L1073.11 378.439C1073.11 378.439 1072.36 404.069 1060.52 422.499C1060.53 422.489 1055.22 424.879 1051.82 426.749Z" fill="#96D2F4"/>
<path d="M969.3 609.179C979.49 608.489 989.73 608.479 999.94 608.669C1002.82 608.729 1005.71 608.809 1008.59 608.949C1008.61 608.949 1008.63 608.958 1008.65 608.973C1008.66 608.988 1008.67 609.008 1008.67 609.029C1008.67 609.051 1008.66 609.071 1008.65 609.086C1008.63 609.101 1008.61 609.109 1008.59 609.109C998.4 609.739 988.15 609.859 977.95 609.659C975.06 609.599 972.18 609.509 969.3 609.349C969.283 609.343 969.267 609.332 969.256 609.316C969.246 609.301 969.24 609.283 969.24 609.264C969.24 609.246 969.246 609.227 969.256 609.212C969.267 609.197 969.283 609.185 969.3 609.179Z" fill="#37474F"/>
<path d="M983.55 558.779L984.87 535.519C985.31 527.799 985.51 520.029 986.24 512.339C986.94 504.949 989.95 498.229 992.62 491.389C995.43 484.199 998.24 477.009 1001.17 469.869C1006.75 456.269 1013.02 442.979 1018.64 429.399C1024.05 416.339 1028.83 402.589 1030.09 388.399C1030.24 386.669 1030.39 384.939 1030.49 383.209C1030.49 383.18 1030.5 383.152 1030.52 383.132C1030.54 383.111 1030.57 383.099 1030.6 383.099C1030.63 383.099 1030.66 383.111 1030.68 383.132C1030.7 383.152 1030.71 383.18 1030.71 383.209C1031.07 397.269 1027.03 411.099 1022.02 424.089C1016.79 437.639 1010.46 450.749 1004.87 464.149C1001.9 471.276 998.997 478.429 996.15 485.609L991.89 496.439C990.433 499.811 989.19 503.271 988.17 506.799C987.378 510.513 986.939 514.293 986.86 518.089L986.2 529.599L984.85 553.079C983.96 568.729 983.14 584.399 981.97 600.029C981.83 601.949 981.684 603.869 981.53 605.789C981.53 605.999 981.19 605.989 981.2 605.789C981.73 590.079 982.67 574.439 983.55 558.779Z" fill="#F1F8FC"/>
<path d="M1038.79 427.879C1041.41 427.889 1044.03 427.679 1046.62 427.249C1049.18 426.718 1051.72 426.05 1054.21 425.249C1056.66 424.719 1059.15 424.338 1061.65 424.109C1064.17 423.778 1066.63 423.074 1068.95 422.019C1069.06 421.959 1069.15 422.129 1069.04 422.179C1066.79 423.372 1064.45 424.375 1062.04 425.179C1059.53 425.939 1056.92 426.019 1054.38 426.619C1051.81 427.352 1049.21 427.926 1046.57 428.339C1043.97 428.63 1041.34 428.559 1038.76 428.129C1038.66 428.039 1038.69 427.879 1038.79 427.879Z" fill="#F1F8FC"/>
<path d="M1033.65 473.799C1034.2 472.089 1034.73 470.369 1035.32 468.659C1036.51 465.209 1037.71 461.759 1039.03 458.339C1041.64 451.539 1044.11 444.699 1046.88 437.939C1048.44 434.099 1049.88 430.219 1051.68 426.459C1051.68 426.369 1051.89 426.409 1051.86 426.459C1050.93 429.969 1049.62 433.399 1048.44 436.859C1047.26 440.319 1046.01 443.749 1044.75 447.189C1042.25 454.019 1039.8 460.859 1037.07 467.629C1036.31 469.529 1035.53 471.429 1034.7 473.309C1033.87 475.189 1033.19 477.219 1032.19 479.089C1032.13 479.189 1031.96 479.139 1031.99 479.039C1032.38 477.299 1033.11 475.559 1033.65 473.799Z" fill="#F1F8FC"/>
<mask id="path-77-inside-1_525_68006" fill="white">
<path fill-rule="evenodd" clip-rule="evenodd" d="M1037.2 296.619C1040.57 292.039 1040.12 276.939 1037.2 271.439C1032.88 263.309 1020.01 263.439 1014.2 269.769C1010.22 274.099 1010.55 293.199 1016.41 299.349C1018.64 301.689 1021.38 302.833 1024.19 303.012C1024.6 304.089 1024.95 305.186 1025.25 306.299C1025.32 306.601 1025.36 306.91 1025.36 307.219V307.369C1025.53 309.139 1029.39 314.659 1032.68 314.669C1036.07 314.669 1039.04 309.189 1039.06 304.829C1039.06 304.597 1038.53 303.07 1037.8 300.936C1037.52 300.128 1037.21 299.234 1036.89 298.289C1036.79 297.991 1036.69 297.687 1036.59 297.379C1036.8 297.133 1037 296.879 1037.2 296.619Z"/>
</mask>
<path fill-rule="evenodd" clip-rule="evenodd" d="M1037.2 296.619C1040.57 292.039 1040.12 276.939 1037.2 271.439C1032.88 263.309 1020.01 263.439 1014.2 269.769C1010.22 274.099 1010.55 293.199 1016.41 299.349C1018.64 301.689 1021.38 302.833 1024.19 303.012C1024.6 304.089 1024.95 305.186 1025.25 306.299C1025.32 306.601 1025.36 306.91 1025.36 307.219V307.369C1025.53 309.139 1029.39 314.659 1032.68 314.669C1036.07 314.669 1039.04 309.189 1039.06 304.829C1039.06 304.597 1038.53 303.07 1037.8 300.936C1037.52 300.128 1037.21 299.234 1036.89 298.289C1036.79 297.991 1036.69 297.687 1036.59 297.379C1036.8 297.133 1037 296.879 1037.2 296.619Z" fill="white"/>
<path d="M1037.2 271.439L1037.38 271.346L1037.38 271.346L1037.2 271.439ZM1037.2 296.619L1037.36 296.738L1037.36 296.74L1037.2 296.619ZM1014.2 269.769L1014.35 269.905L1014.35 269.905L1014.2 269.769ZM1016.41 299.349L1016.27 299.487L1016.27 299.487L1016.41 299.349ZM1024.19 303.012L1024.2 302.812L1024.33 302.821L1024.38 302.942L1024.19 303.012ZM1025.25 306.299L1025.44 306.247L1025.45 306.254L1025.25 306.299ZM1025.36 307.219L1025.56 307.217V307.219H1025.36ZM1025.36 307.369L1025.16 307.389L1025.16 307.379V307.369H1025.36ZM1032.68 314.669V314.869H1032.68L1032.68 314.669ZM1039.06 304.829H1039.26L1039.26 304.83L1039.06 304.829ZM1037.8 300.936L1037.61 301.001L1037.8 300.936ZM1036.89 298.289L1036.7 298.354L1036.7 298.353L1036.89 298.289ZM1036.59 297.379L1036.4 297.441L1036.37 297.335L1036.44 297.25L1036.59 297.379ZM1037.38 271.346C1038.86 274.139 1039.7 279.329 1039.76 284.372C1039.79 286.899 1039.62 289.401 1039.23 291.562C1038.84 293.717 1038.23 295.556 1037.36 296.738L1037.04 296.501C1037.85 295.393 1038.45 293.627 1038.84 291.491C1039.22 289.361 1039.39 286.885 1039.36 284.377C1039.3 279.35 1038.46 274.24 1037.02 271.533L1037.38 271.346ZM1014.05 269.634C1017 266.418 1021.74 264.788 1026.27 264.982C1030.8 265.177 1035.17 267.201 1037.38 271.346L1037.02 271.533C1034.91 267.548 1030.68 265.572 1026.25 265.382C1021.81 265.191 1017.21 266.791 1014.35 269.905L1014.05 269.634ZM1016.27 299.487C1014.77 297.917 1013.64 295.535 1012.84 292.798C1012.04 290.057 1011.57 286.942 1011.42 283.887C1011.26 280.833 1011.41 277.832 1011.85 275.319C1012.28 272.816 1013.02 270.761 1014.05 269.634L1014.35 269.905C1013.39 270.943 1012.68 272.899 1012.24 275.388C1011.81 277.866 1011.66 280.836 1011.81 283.867C1011.97 286.897 1012.44 289.981 1013.23 292.686C1014.01 295.395 1015.12 297.707 1016.56 299.211L1016.27 299.487ZM1024.18 303.212C1021.32 303.029 1018.53 301.865 1016.27 299.487L1016.55 299.211C1018.75 301.513 1021.44 302.636 1024.2 302.812L1024.18 303.212ZM1024.38 302.942C1024.79 304.025 1025.14 305.128 1025.44 306.247L1025.06 306.352C1024.76 305.245 1024.41 304.154 1024 303.082L1024.38 302.942ZM1025.45 306.254C1025.52 306.57 1025.56 306.893 1025.56 307.217L1025.16 307.221C1025.16 306.926 1025.12 306.632 1025.06 306.345L1025.45 306.254ZM1025.56 307.219V307.369H1025.16V307.219H1025.56ZM1025.56 307.35C1025.6 307.748 1025.85 308.394 1026.29 309.156C1026.72 309.911 1027.31 310.756 1028 311.548C1028.69 312.34 1029.47 313.073 1030.28 313.607C1031.09 314.142 1031.91 314.467 1032.68 314.469L1032.68 314.869C1031.8 314.867 1030.91 314.498 1030.06 313.94C1029.22 313.381 1028.41 312.621 1027.7 311.811C1026.99 311 1026.38 310.133 1025.94 309.354C1025.5 308.584 1025.21 307.876 1025.16 307.389L1025.56 307.35ZM1032.68 314.469C1034.27 314.469 1035.8 313.178 1036.96 311.28C1038.11 309.393 1038.85 306.969 1038.86 304.828L1039.26 304.83C1039.25 307.05 1038.49 309.545 1037.3 311.489C1036.13 313.421 1034.48 314.869 1032.68 314.869V314.469ZM1038.86 304.829C1038.86 304.831 1038.86 304.824 1038.86 304.803C1038.85 304.785 1038.85 304.76 1038.84 304.728C1038.83 304.665 1038.8 304.582 1038.77 304.479C1038.71 304.273 1038.63 303.997 1038.52 303.659C1038.29 302.983 1037.98 302.069 1037.61 301.001L1037.99 300.87C1038.35 301.937 1038.67 302.854 1038.9 303.533C1039.01 303.873 1039.1 304.155 1039.16 304.367C1039.19 304.474 1039.21 304.565 1039.23 304.638C1039.25 304.705 1039.26 304.775 1039.26 304.829H1038.86ZM1037.61 301.001C1037.33 300.193 1037.02 299.298 1036.7 298.354L1037.08 298.225C1037.4 299.169 1037.71 300.063 1037.99 300.87L1037.61 301.001ZM1036.7 298.353C1036.6 298.053 1036.5 297.749 1036.4 297.441L1036.78 297.318C1036.88 297.625 1036.98 297.928 1037.08 298.226L1036.7 298.353ZM1037.36 296.74C1037.16 297.003 1036.96 297.259 1036.74 297.509L1036.44 297.25C1036.65 297.006 1036.85 296.756 1037.04 296.499L1037.36 296.74Z" fill="#96D2F4" mask="url(#path-77-inside-1_525_68006)"/>
<path d="M1035.86 268.619C1035.86 268.619 1039.91 271.619 1040.73 273.619C1041.55 275.619 1042.73 283.769 1040.2 289.619C1039.3 291.719 1040.11 295.619 1038.3 297.329C1036.49 299.039 1026.03 295.409 1025.08 293.919C1024.13 292.429 1024.8 286.919 1024.72 284.639C1024.64 282.359 1022.02 282.439 1021.41 282.939C1017.55 286.049 1018.13 291.869 1017.55 290.939C1016.97 290.009 1015.06 287.379 1014.55 285.299C1014.04 283.219 1016.62 276.139 1016.11 274.499C1015.6 272.859 1013.49 274.499 1011.9 274.499C1010.9 274.499 1010.09 268.809 1011.17 267.569C1012.25 266.329 1015.17 266.309 1016.29 265.999C1017.41 265.689 1018.6 263.909 1021.72 263.229C1024.84 262.549 1028.95 263.569 1030.59 263.869C1033.2 264.339 1035.86 268.619 1035.86 268.619Z" fill="#263238"/>
<path d="M1018.54 287.709C1018.54 287.709 1021.1 281.769 1023.72 282.589C1026.34 283.409 1025.11 291.439 1022.6 293.079C1022.29 293.305 1021.93 293.466 1021.55 293.551C1021.18 293.636 1020.79 293.645 1020.41 293.576C1020.03 293.506 1019.67 293.361 1019.34 293.149C1019.02 292.937 1018.74 292.661 1018.53 292.339L1018.54 287.709Z" fill="white"/>
<path d="M1023.33 284.889C1023.33 284.889 1023.39 284.889 1023.33 284.959C1021.55 286.149 1020.9 288.149 1020.56 290.169C1020.63 289.952 1020.75 289.754 1020.91 289.587C1021.07 289.42 1021.26 289.289 1021.47 289.203C1021.68 289.117 1021.91 289.077 1022.14 289.087C1022.37 289.097 1022.6 289.155 1022.8 289.259C1022.82 289.259 1022.83 289.266 1022.84 289.277C1022.85 289.288 1022.86 289.303 1022.86 289.319C1022.86 289.335 1022.85 289.351 1022.84 289.362C1022.83 289.373 1022.82 289.379 1022.8 289.379C1022.44 289.34 1022.07 289.416 1021.75 289.595C1021.43 289.774 1021.18 290.048 1021.02 290.379C1020.76 290.933 1020.56 291.513 1020.42 292.109C1020.37 292.299 1020.04 292.269 1020.06 292.109C1019.51 289.539 1020.72 285.689 1023.33 284.889Z" fill="#263238"/>
<path d="M1047.11 305.819C1061.93 313.319 1088.11 336.169 1087.45 343.379C1086.17 356.669 1055.05 371.869 1048.92 375.379C1046.3 376.869 1037.15 353.229 1039.92 351.579C1042.33 350.149 1059.82 343.699 1059.8 341.299C1059.8 340.299 1050.42 328.659 1042.45 314.629C1036.39 303.859 1042.77 303.609 1047.11 305.819Z" fill="#EB9481"/>
<path d="M1045.25 349.189C1045.25 349.189 1042.65 350.619 1035.58 352.109C1030.06 353.279 1017.89 359.859 1014.9 375.439C1013.75 381.439 1017.44 384.819 1019.73 378.829C1021.34 374.609 1022.1 371.549 1023.01 370.319C1023.01 370.319 1025.1 376.909 1028.92 378.139C1032.25 379.206 1035.66 380.038 1039.11 380.629C1039.36 380.021 1039.58 379.396 1039.75 378.759C1041.3 379.107 1042.92 379.01 1044.41 378.479C1045.91 377.948 1047.23 377.005 1048.21 375.759L1053.68 372.879L1045.25 349.189Z" fill="#EB9481"/>
<path d="M1031.11 354.599C1029.27 356.919 1025.46 361.899 1023.76 367.059C1021.88 372.789 1019.76 384.339 1024.03 385.689C1027.14 386.689 1028.32 382.339 1028.32 382.339C1028.32 382.339 1028.47 387.339 1031.47 387.579C1034.21 387.829 1034.93 384.419 1034.93 384.419C1034.93 384.419 1035.53 387.419 1038.22 387.149C1041.45 386.829 1039.66 380.609 1042.65 377.469C1043.38 376.759 1031.11 354.599 1031.11 354.599Z" fill="#EB9481"/>
<path d="M1030.2 368.049C1028.14 372.479 1027.47 377.432 1028.29 382.249C1028.29 382.369 1028.42 382.419 1028.42 382.299C1028.45 377.5 1029.07 372.722 1030.25 368.069C1030.25 368.069 1030.22 368.019 1030.2 368.049Z" fill="#263238"/>
<path d="M1035.93 370.119C1034.93 372.369 1033.53 379.039 1034.87 384.409C1034.87 384.529 1035.01 384.569 1035 384.459C1034.79 379.664 1035.13 374.86 1036 370.139L1035.93 370.119Z" fill="#263238"/>
<path d="M1045.25 349.189L1054.85 374.909C1054.85 374.909 1089.47 355.059 1087.92 342.139C1086.92 333.679 1061.51 313.139 1050.17 306.799C1038.83 300.459 1036.17 303.579 1042.01 315.319C1047.85 327.059 1059.07 341.219 1059.01 341.529C1058.95 341.839 1045.25 349.189 1045.25 349.189Z" fill="#064CD0"/>
<path d="M1087.86 342.151L1087.86 342.151C1087.74 341.114 1087.24 339.881 1086.43 338.503C1085.62 337.125 1084.51 335.609 1083.16 334.004C1080.46 330.795 1076.84 327.24 1072.9 323.749C1065 316.767 1055.82 310.052 1050.16 306.887C1047.33 305.303 1045.05 304.315 1043.31 303.902C1041.56 303.488 1040.4 303.662 1039.76 304.347C1039.12 305.036 1038.97 306.283 1039.36 308.123C1039.76 309.955 1040.68 312.343 1042.14 315.275C1045.06 321.138 1049.32 327.608 1052.84 332.653C1054.61 335.176 1056.19 337.341 1057.32 338.895L1057.39 338.996C1057.93 339.726 1058.36 340.316 1058.66 340.738C1058.81 340.958 1058.94 341.133 1059.02 341.258C1059.06 341.321 1059.09 341.373 1059.11 341.413C1059.12 341.432 1059.13 341.451 1059.14 341.468C1059.14 341.477 1059.14 341.487 1059.15 341.498C1059.15 341.507 1059.15 341.526 1059.15 341.548C1059.14 341.581 1059.12 341.604 1059.11 341.613C1059.1 341.626 1059.09 341.639 1059.08 341.651C1059.05 341.676 1059.01 341.705 1058.96 341.737C1058.87 341.803 1058.74 341.888 1058.57 341.991C1058.24 342.195 1057.77 342.47 1057.21 342.791C1056.09 343.432 1054.59 344.258 1053.11 345.073C1051.62 345.889 1050.13 346.695 1049.01 347.297C1048.46 347.598 1047.99 347.848 1047.67 348.023L1047.29 348.226L1047.24 348.253L1059.56 375.409C1059.62 375.37 1059.7 375.315 1059.8 375.244C1060.02 375.091 1060.34 374.865 1060.75 374.572C1061.56 373.987 1062.73 373.136 1064.12 372.075C1066.91 369.952 1070.61 366.988 1074.26 363.621C1077.91 360.253 1081.51 356.485 1084.09 352.755C1086.68 349.021 1088.25 345.343 1087.86 342.151Z" fill="#F1F8FC" stroke="#96D2F4" stroke-width="0.2"/>
<path d="M1042.01 315.319C1047.81 327.039 1059.01 341.159 1059.01 341.519C1059.01 341.879 1047.01 348.209 1047.01 348.209L1059.42 375.569C1059.42 375.569 1073.59 365.879 1081.94 355.639L1041.84 303.639C1038.01 303.439 1038.11 307.369 1042.01 315.319Z" fill="#263238" fill-opacity="0.05"/>
<path d="M1024.07 309.235L1024.07 309.235C1020.84 312.952 1018.13 319.433 1015.89 327.309C1013.65 335.182 1011.9 344.435 1010.58 353.683C1007.97 372.1 1007.12 390.486 1007.72 397.911L1084.38 391.5C1083.9 389.861 1078.29 371.9 1070.3 352.453C1066.16 342.374 1061.38 331.898 1056.34 323.091C1051.3 314.281 1046.01 307.156 1040.85 303.763L1040.85 303.763C1039.96 303.178 1038.67 302.989 1037.17 303.103C1035.67 303.216 1033.98 303.63 1032.3 304.235C1028.94 305.446 1025.64 307.413 1024.07 309.235Z" fill="#F1F8FC" stroke="#96D2F4" stroke-width="0.2"/>
<path d="M1039.99 303.959L1038.75 299.369L1023.82 306.619L1024.01 309.379L1039.99 303.959Z" fill="#263238"/>
<path d="M1023.68 309.38L1040.77 303.616L1039.6 300.066L1023.69 307.204L1023.68 309.38Z" fill="#F1F8FC" stroke="black" stroke-width="0.2"/>
<mask id="path-93-inside-2_525_68006" fill="white">
<path fill-rule="evenodd" clip-rule="evenodd" d="M1029.54 316.559C1031.89 335.699 1024.59 375.669 1017.72 380.509C1008.37 387.093 979.244 371.542 967.401 365.219L967.401 365.219C965.79 364.358 964.498 363.669 963.62 363.229C963.546 363.192 963.484 363.143 963.432 363.083L961.29 361.929C959.481 361.581 957.806 360.728 956.461 359.468C955.658 358.715 954.991 357.835 954.486 356.868C952.876 356.927 951.26 357.453 949.782 357.934C947.369 358.72 945.322 359.386 944.26 357.709C942.5 355.079 945.26 352.859 945.26 352.859C945.26 352.859 941.36 353.989 940.16 350.989C938.88 347.789 943.88 344.989 943.88 344.989C943.88 344.989 938.77 346.089 938.13 342.349C937.408 338.17 946.056 334.712 953.004 332.994C951.891 332.932 950.235 333.181 948.064 333.508L948.064 333.508C946.586 333.73 944.868 333.989 942.92 334.209C935.52 335.039 937.06 329.409 943.83 327.409C961.49 322.169 974.78 331.199 978.93 336.269C981.133 338.962 982.916 340.866 984.248 342.172C984.78 342.493 985.357 342.844 985.969 343.216L985.972 343.218C992.144 346.971 1001.82 352.854 1003.53 351.699C1003.89 351.456 1004.83 348.982 1006.32 345.101C1008.81 338.615 1012.8 328.198 1018.05 317.699C1024.48 304.899 1028.85 310.889 1029.54 316.559Z"/>
</mask>
<path fill-rule="evenodd" clip-rule="evenodd" d="M1029.54 316.559C1031.89 335.699 1024.59 375.669 1017.72 380.509C1008.37 387.093 979.244 371.542 967.401 365.219L967.401 365.219C965.79 364.358 964.498 363.669 963.62 363.229C963.546 363.192 963.484 363.143 963.432 363.083L961.29 361.929C959.481 361.581 957.806 360.728 956.461 359.468C955.658 358.715 954.991 357.835 954.486 356.868C952.876 356.927 951.26 357.453 949.782 357.934C947.369 358.72 945.322 359.386 944.26 357.709C942.5 355.079 945.26 352.859 945.26 352.859C945.26 352.859 941.36 353.989 940.16 350.989C938.88 347.789 943.88 344.989 943.88 344.989C943.88 344.989 938.77 346.089 938.13 342.349C937.408 338.17 946.056 334.712 953.004 332.994C951.891 332.932 950.235 333.181 948.064 333.508L948.064 333.508C946.586 333.73 944.868 333.989 942.92 334.209C935.52 335.039 937.06 329.409 943.83 327.409C961.49 322.169 974.78 331.199 978.93 336.269C981.133 338.962 982.916 340.866 984.248 342.172C984.78 342.493 985.357 342.844 985.969 343.216L985.972 343.218C992.144 346.971 1001.82 352.854 1003.53 351.699C1003.89 351.456 1004.83 348.982 1006.32 345.101C1008.81 338.615 1012.8 328.198 1018.05 317.699C1024.48 304.899 1028.85 310.889 1029.54 316.559Z" fill="white"/>
<path d="M1017.72 380.509L1017.84 380.673L1017.84 380.673L1017.72 380.509ZM1029.54 316.559L1029.34 316.584L1029.34 316.584L1029.54 316.559ZM967.401 365.219L967.495 365.042L967.496 365.042L967.401 365.219ZM967.401 365.219L967.308 365.396L967.307 365.395L967.401 365.219ZM963.62 363.229L963.71 363.05L963.71 363.051L963.62 363.229ZM963.432 363.083L963.527 362.907L963.56 362.925L963.584 362.953L963.432 363.083ZM961.29 361.929L961.328 361.733L961.358 361.739L961.385 361.753L961.29 361.929ZM956.461 359.468L956.598 359.322L956.461 359.468ZM954.486 356.868L954.478 356.668L954.604 356.664L954.663 356.775L954.486 356.868ZM949.782 357.934L949.844 358.125L949.782 357.934ZM944.26 357.709L944.426 357.598L944.429 357.602L944.26 357.709ZM945.26 352.859L945.205 352.667L945.386 353.015L945.26 352.859ZM940.16 350.989L940.346 350.915V350.915L940.16 350.989ZM943.88 344.989L943.838 344.794L943.978 345.164L943.88 344.989ZM938.13 342.349L938.327 342.315L938.327 342.316L938.13 342.349ZM953.004 332.994L953.015 332.794L953.052 333.188L953.004 332.994ZM948.064 333.508L948.094 333.706L948.089 333.706L948.064 333.508ZM948.064 333.508L948.034 333.31L948.039 333.309L948.064 333.508ZM942.92 334.209L942.943 334.408L942.943 334.408L942.92 334.209ZM943.83 327.409L943.887 327.601L943.887 327.601L943.83 327.409ZM978.93 336.269L979.085 336.143L979.085 336.143L978.93 336.269ZM984.248 342.172L984.145 342.343L984.125 342.331L984.108 342.315L984.248 342.172ZM985.969 343.216L985.865 343.387L985.865 343.387L985.969 343.216ZM985.972 343.218L986.076 343.047L986.076 343.047L985.972 343.218ZM1003.53 351.699L1003.64 351.864L1003.64 351.865L1003.53 351.699ZM1006.32 345.101L1006.14 345.03L1006.32 345.101ZM1018.05 317.699L1017.87 317.61L1017.87 317.61L1018.05 317.699ZM1017.61 380.346C1018.42 379.768 1019.27 378.649 1020.12 377.063C1020.97 375.482 1021.8 373.46 1022.61 371.102C1024.22 366.388 1025.7 360.35 1026.89 353.861C1029.28 340.878 1030.51 326.124 1029.34 316.584L1029.74 316.535C1030.92 326.135 1029.68 340.935 1027.28 353.933C1026.09 360.434 1024.6 366.492 1022.99 371.231C1022.18 373.601 1021.33 375.645 1020.47 377.251C1019.62 378.852 1018.73 380.04 1017.84 380.673L1017.61 380.346ZM967.496 365.042C973.418 368.205 983.651 373.668 993.569 377.518C998.528 379.443 1003.4 380.961 1007.61 381.589C1011.83 382.218 1015.33 381.945 1017.61 380.346L1017.84 380.673C1015.43 382.365 1011.79 382.617 1007.55 381.985C1003.3 381.351 998.395 379.821 993.424 377.891C983.48 374.03 973.227 368.556 967.307 365.395L967.496 365.042ZM967.494 365.042L967.495 365.042L967.308 365.396L967.308 365.396L967.494 365.042ZM963.71 363.051C964.591 363.492 965.885 364.183 967.495 365.042L967.307 365.395C965.694 364.534 964.406 363.846 963.531 363.408L963.71 363.051ZM963.584 362.953C963.618 362.993 963.659 363.025 963.71 363.05L963.531 363.408C963.433 363.359 963.349 363.294 963.28 363.213L963.584 362.953ZM961.385 361.753L963.527 362.907L963.337 363.259L961.196 362.105L961.385 361.753ZM956.598 359.322C957.916 360.556 959.555 361.392 961.328 361.733L961.253 362.126C959.406 361.77 957.697 360.899 956.325 359.614L956.598 359.322ZM954.663 356.775C955.158 357.722 955.811 358.584 956.598 359.322L956.325 359.614C955.504 358.845 954.824 357.947 954.308 356.961L954.663 356.775ZM949.72 357.744C951.193 357.265 952.836 356.729 954.478 356.668L954.493 357.068C952.916 357.126 951.327 357.642 949.844 358.125L949.72 357.744ZM944.429 357.602C944.674 357.99 944.971 358.234 945.31 358.378C945.652 358.524 946.049 358.572 946.503 358.546C947.418 358.492 948.505 358.14 949.72 357.744L949.844 358.125C948.646 358.515 947.504 358.888 946.526 358.945C946.033 358.974 945.569 358.923 945.153 358.747C944.734 358.568 944.377 358.267 944.091 357.816L944.429 357.602ZM945.26 352.859C945.386 353.015 945.386 353.015 945.386 353.015C945.386 353.015 945.386 353.015 945.386 353.015C945.386 353.015 945.386 353.015 945.386 353.015C945.385 353.015 945.385 353.015 945.385 353.016C945.384 353.017 945.382 353.018 945.38 353.02C945.375 353.023 945.369 353.029 945.36 353.037C945.341 353.052 945.314 353.076 945.28 353.107C945.211 353.17 945.114 353.263 945.003 353.383C944.78 353.624 944.501 353.97 944.277 354.392C943.831 355.231 943.599 356.361 944.426 357.598L944.094 357.821C943.162 356.427 943.43 355.133 943.924 354.204C944.169 353.743 944.471 353.369 944.71 353.111C944.83 352.982 944.935 352.881 945.01 352.812C945.048 352.778 945.078 352.751 945.1 352.733C945.11 352.724 945.119 352.717 945.125 352.712C945.128 352.709 945.13 352.707 945.132 352.706C945.133 352.705 945.133 352.705 945.134 352.704C945.134 352.704 945.134 352.704 945.134 352.704C945.135 352.704 945.135 352.704 945.135 352.704C945.135 352.703 945.135 352.703 945.26 352.859ZM940.346 350.915C940.907 352.317 942.093 352.761 943.177 352.85C943.719 352.895 944.227 352.849 944.602 352.791C944.788 352.763 944.941 352.731 945.045 352.707C945.098 352.695 945.138 352.685 945.166 352.678C945.179 352.674 945.189 352.671 945.196 352.67C945.199 352.669 945.201 352.668 945.203 352.668C945.204 352.667 945.204 352.667 945.204 352.667C945.205 352.667 945.205 352.667 945.205 352.667C945.205 352.667 945.205 352.667 945.205 352.667C945.205 352.667 945.205 352.667 945.26 352.859C945.316 353.051 945.316 353.051 945.316 353.051C945.316 353.051 945.315 353.051 945.315 353.052C945.315 353.052 945.315 353.052 945.315 353.052C945.314 353.052 945.313 353.052 945.312 353.053C945.31 353.053 945.306 353.054 945.302 353.055C945.294 353.057 945.282 353.061 945.267 353.065C945.236 353.073 945.192 353.084 945.135 353.097C945.022 353.123 944.86 353.156 944.662 353.187C944.268 353.247 943.727 353.297 943.144 353.249C941.978 353.153 940.614 352.661 939.974 351.064L940.346 350.915ZM943.88 344.989C943.978 345.164 943.978 345.164 943.978 345.164C943.978 345.164 943.978 345.164 943.978 345.164C943.978 345.164 943.978 345.164 943.977 345.164C943.977 345.164 943.976 345.165 943.975 345.165C943.973 345.167 943.97 345.168 943.965 345.171C943.956 345.176 943.943 345.184 943.926 345.194C943.89 345.215 943.839 345.245 943.773 345.286C943.641 345.367 943.454 345.487 943.233 345.641C942.791 345.949 942.216 346.391 941.682 346.93C940.601 348.021 939.754 349.436 940.346 350.915L939.974 351.064C939.286 349.343 940.299 347.758 941.398 346.649C941.954 346.087 942.55 345.629 943.005 345.313C943.232 345.154 943.426 345.03 943.563 344.946C943.631 344.903 943.686 344.871 943.723 344.849C943.742 344.838 943.757 344.83 943.766 344.824C943.771 344.821 943.775 344.819 943.778 344.817C943.779 344.817 943.78 344.816 943.781 344.816C943.782 344.815 943.782 344.815 943.782 344.815C943.782 344.815 943.782 344.815 943.782 344.815C943.782 344.815 943.782 344.815 943.88 344.989ZM938.327 342.316C938.479 343.2 938.89 343.787 939.418 344.179C939.951 344.575 940.614 344.78 941.273 344.874C941.932 344.967 942.574 344.947 943.054 344.904C943.293 344.882 943.49 344.854 943.627 344.832C943.696 344.821 943.749 344.811 943.785 344.804C943.803 344.801 943.817 344.798 943.826 344.796C943.83 344.795 943.833 344.795 943.836 344.794C943.837 344.794 943.837 344.794 943.838 344.794C943.838 344.794 943.838 344.794 943.838 344.794C943.838 344.794 943.838 344.794 943.838 344.794C943.838 344.794 943.838 344.794 943.88 344.989C943.922 345.185 943.922 345.185 943.922 345.185C943.922 345.185 943.922 345.185 943.922 345.185C943.922 345.185 943.921 345.185 943.921 345.185C943.92 345.185 943.919 345.186 943.917 345.186C943.915 345.186 943.911 345.187 943.905 345.188C943.895 345.19 943.88 345.193 943.86 345.197C943.821 345.205 943.764 345.215 943.691 345.227C943.546 345.25 943.34 345.279 943.09 345.302C942.591 345.347 941.916 345.369 941.217 345.27C940.519 345.171 939.785 344.95 939.179 344.5C938.569 344.047 938.102 343.369 937.933 342.383L938.327 342.316ZM953.052 333.188C949.586 334.045 945.705 335.334 942.786 336.924C941.326 337.72 940.119 338.584 939.323 339.497C938.529 340.409 938.16 341.35 938.327 342.315L937.933 342.383C937.739 341.259 938.18 340.201 939.021 339.235C939.861 338.27 941.115 337.379 942.595 336.573C945.556 334.96 949.474 333.661 952.956 332.8L953.052 333.188ZM948.034 333.31C950.195 332.985 951.876 332.731 953.015 332.794L952.993 333.194C951.905 333.133 950.275 333.377 948.094 333.706L948.034 333.31ZM948.039 333.309L948.039 333.309L948.089 333.706L948.089 333.706L948.039 333.309ZM942.898 334.01C944.842 333.79 946.556 333.532 948.034 333.31L948.094 333.706C946.616 333.928 944.895 334.187 942.943 334.408L942.898 334.01ZM943.887 327.601C942.216 328.095 940.875 328.81 939.917 329.587C938.956 330.368 938.398 331.196 938.258 331.909C938.188 332.262 938.221 332.584 938.352 332.865C938.484 333.145 938.721 333.399 939.086 333.604C939.823 334.016 941.065 334.216 942.898 334.01L942.943 334.408C941.076 334.617 939.735 334.425 938.891 333.953C938.466 333.715 938.163 333.403 937.99 333.035C937.817 332.666 937.782 332.255 937.865 331.832C938.031 330.991 938.666 330.088 939.665 329.277C940.67 328.462 942.06 327.724 943.774 327.217L943.887 327.601ZM978.776 336.396C974.665 331.374 961.454 322.389 943.887 327.601L943.773 327.217C961.527 321.95 974.896 331.025 979.085 336.143L978.776 336.396ZM984.108 342.315C982.77 341.003 980.983 339.093 978.776 336.396L979.085 336.143C981.284 338.83 983.062 340.728 984.388 342.029L984.108 342.315ZM985.865 343.387C985.253 343.015 984.676 342.664 984.145 342.343L984.352 342.001C984.884 342.322 985.461 342.673 986.073 343.045L985.865 343.387ZM985.868 343.389L985.865 343.387L986.073 343.045L986.076 343.047L985.868 343.389ZM1003.64 351.865C1003.36 352.052 1002.96 352.078 1002.51 352.019C1002.05 351.958 1001.49 351.803 1000.86 351.577C999.607 351.124 998.035 350.375 996.33 349.476C992.92 347.677 988.953 345.265 985.868 343.389L986.076 343.047C989.164 344.925 993.119 347.33 996.517 349.122C998.216 350.019 999.769 350.758 1001 351.201C1001.62 351.422 1002.14 351.567 1002.56 351.622C1002.99 351.678 1003.27 351.635 1003.42 351.533L1003.64 351.865ZM1006.51 345.173C1005.77 347.112 1005.16 348.704 1004.69 349.841C1004.45 350.409 1004.25 350.867 1004.09 351.2C1004 351.367 1003.93 351.506 1003.86 351.613C1003.8 351.713 1003.72 351.809 1003.64 351.864L1003.42 351.534C1003.42 351.535 1003.42 351.533 1003.43 351.527C1003.43 351.521 1003.44 351.512 1003.45 351.5C1003.47 351.476 1003.49 351.442 1003.52 351.398C1003.58 351.308 1003.65 351.183 1003.73 351.023C1003.89 350.702 1004.08 350.254 1004.32 349.688C1004.78 348.557 1005.39 346.971 1006.14 345.03L1006.51 345.173ZM1018.23 317.789C1012.98 328.278 1008.99 338.686 1006.51 345.173L1006.14 345.03C1008.62 338.543 1012.62 328.118 1017.87 317.61L1018.23 317.789ZM1029.34 316.584C1029.17 315.185 1028.77 313.771 1028.18 312.638C1027.58 311.5 1026.81 310.675 1025.89 310.394C1024.99 310.118 1023.89 310.353 1022.59 311.475C1021.3 312.6 1019.83 314.599 1018.23 317.789L1017.87 317.61C1019.48 314.4 1020.98 312.347 1022.33 311.173C1023.69 309.995 1024.93 309.682 1026.01 310.012C1027.07 310.338 1027.92 311.273 1028.54 312.453C1029.16 313.637 1029.56 315.099 1029.74 316.535L1029.34 316.584Z" fill="#96D2F4" mask="url(#path-93-inside-2_525_68006)"/>
<path d="M959.59 339.239C953.916 339.471 948.449 341.432 943.92 344.859C943.81 344.949 943.82 345.079 943.92 345.019C948.89 342.488 954.149 340.567 959.58 339.299L959.59 339.239Z" fill="#96D2F4"/>
<path d="M960.51 346.249C957.68 346.459 950.04 348.549 945.21 352.799C945.1 352.889 945.12 353.019 945.21 352.959C950.034 350.172 955.161 347.944 960.49 346.319L960.51 346.249Z" fill="#96D2F4"/>
<path d="M968.198 369.311L968.221 369.323C968.305 369.364 968.429 369.425 968.591 369.505C968.915 369.665 969.392 369.898 970.001 370.192C971.219 370.78 972.966 371.612 975.086 372.59C979.325 374.544 985.049 377.078 990.992 379.396C996.935 381.714 1003.09 383.815 1008.2 384.903C1010.75 385.448 1013.04 385.738 1014.9 385.678C1016.77 385.618 1018.19 385.206 1019.04 384.368C1019.9 383.516 1020.75 382.11 1021.57 380.263C1022.39 378.417 1023.18 376.138 1023.93 373.548C1025.42 368.369 1026.75 361.953 1027.81 355.282C1029.95 341.938 1031.05 327.59 1030.42 320.098C1030.11 316.348 1029.58 313.511 1028.85 311.569C1028.12 309.62 1027.2 308.605 1026.13 308.433C1025.04 308.26 1023.74 308.926 1022.23 310.492C1020.71 312.053 1019.01 314.484 1017.12 317.779C1013.34 324.367 1009.84 332.659 1007.25 339.328C1005.96 342.662 1004.89 345.589 1004.13 347.694C1004.03 347.963 1003.94 348.219 1003.85 348.46C1003.6 349.162 1003.39 349.744 1003.23 350.183C1003.12 350.477 1003.03 350.709 1002.97 350.869C1002.93 350.949 1002.91 351.013 1002.88 351.059C1002.87 351.082 1002.86 351.102 1002.85 351.119C1002.85 351.127 1002.84 351.135 1002.84 351.144C1002.83 351.15 1002.82 351.164 1002.8 351.175C1002.78 351.188 1002.76 351.191 1002.75 351.192C1002.74 351.192 1002.74 351.192 1002.73 351.192C1002.73 351.192 1002.72 351.191 1002.71 351.19C1002.69 351.188 1002.67 351.183 1002.65 351.176C1002.61 351.164 1002.55 351.143 1002.48 351.116C1002.35 351.062 1002.16 350.979 1001.93 350.87C1001.46 350.653 1000.81 350.333 1000.04 349.946C998.501 349.171 996.473 348.121 994.454 347.067C992.435 346.012 990.425 344.953 988.919 344.156C988.167 343.758 987.54 343.426 987.102 343.193L986.593 342.923L986.492 342.869L968.198 369.311Z" fill="#F1F8FC" stroke="#96D2F4" stroke-width="0.2"/>
<path d="M986.46 342.739C994.42 347.561 1002.66 351.902 1011.14 355.739C1003.3 350.703 995.046 346.353 986.46 342.739Z" fill="#96D2F4"/>
<path d="M1030.48 332.439C1029.03 343.949 1026.17 375.539 1019.48 383.539C1012.84 389.129 988.48 378.339 980.76 375.229C990.23 379.639 1007.02 387.599 1017.36 385.679C1023.26 384.519 1025.03 372.559 1026.29 367.539C1028.5 355.95 1029.91 344.222 1030.51 332.439H1030.48Z" fill="#96D2F4"/>
</svg>
