<svg width="24" height="24" viewBox="0 0 24 24" fill="none" xmlns="http://www.w3.org/2000/svg">
<path fill-rule="evenodd" clip-rule="evenodd" d="M8.16221 15.875C7.56335 16.0989 6.90007 16.0757 6.31828 15.8106C5.96401 15.6491 5.6541 15.4043 5.41507 15.097C5.17604 14.7897 5.015 14.429 4.94572 14.0459C4.87644 13.6628 4.90097 13.2686 5.01724 12.897C5.1335 12.5255 5.33802 12.1876 5.61332 11.9123C5.88861 11.637 6.22649 11.4325 6.59806 11.3162C6.96962 11.1999 7.36382 11.1754 7.74693 11.2447C8.13004 11.314 8.49068 11.475 8.79799 11.714C9.10531 11.9531 9.35016 12.263 9.5116 12.6173H11.4082C11.1637 11.6157 10.5607 10.7385 9.71329 10.1514C8.86584 9.56434 7.83265 9.30814 6.80909 9.43125C5.78554 9.55437 4.84257 10.0483 4.1585 10.8195C3.47443 11.5908 3.09668 12.586 3.09668 13.617C3.09668 14.6479 3.47443 15.6431 4.1585 16.4144C4.84257 17.1856 5.78554 17.6795 6.80909 17.8027C7.83265 17.9258 8.86584 17.6696 9.71329 17.0825C10.5607 16.4954 11.1637 15.6182 11.4082 14.6166H9.5116C9.24646 15.1984 8.76107 15.6511 8.16221 15.875ZM18.069 17.4958C18.5116 17.3283 18.9215 17.0847 19.2801 16.776C19.9322 16.2187 20.3977 15.4748 20.6138 14.6446C20.8299 13.8145 20.7862 12.938 20.4885 12.1335C20.1909 11.329 19.6536 10.6351 18.9493 10.1455C18.2449 9.65584 17.4073 9.39404 16.5495 9.39537H16.241C15.5048 9.45356 14.7963 9.70155 14.1845 10.1152V5.41943H12.4707V17.4958H14.1959V17.0616C14.7585 17.4412 15.4046 17.679 16.0791 17.7546C16.7536 17.8302 17.4363 17.7414 18.069 17.4958ZM19.0256 13.6157C19.0326 13.9357 18.9755 14.2539 18.8579 14.5516C18.7403 14.8493 18.5644 15.1205 18.3405 15.3493C18.1166 15.5781 17.8494 15.7599 17.5543 15.884C17.2593 16.0081 16.9424 16.072 16.6223 16.072C16.3022 16.072 15.9853 16.0081 15.6903 15.884C15.3952 15.7599 15.128 15.5781 14.9041 15.3493C14.6802 15.1205 14.5043 14.8493 14.3867 14.5516C14.2691 14.2539 14.2121 13.9357 14.219 13.6157C14.2327 12.9874 14.4919 12.3895 14.9412 11.9499C15.3904 11.5104 15.9938 11.2643 16.6223 11.2643C17.2508 11.2643 17.8542 11.5104 18.3034 11.9499C18.7527 12.3895 19.0119 12.9874 19.0256 13.6157Z" fill="#222222"/>
</svg>
