<svg width="25" height="24" viewBox="0 0 25 24" fill="none" xmlns="http://www.w3.org/2000/svg">
<g clip-path="url(#clip0_1680_2509)">
<path d="M24.0167 12.2765C24.0167 11.4608 23.9506 10.6406 23.8095 9.83813H12.4907V14.4591H18.9725C18.7035 15.9495 17.8393 17.2679 16.5738 18.1056V21.104H20.4408C22.7116 19.014 24.0167 15.9274 24.0167 12.2765Z" fill="#4285F4"/>
<path d="M12.4906 24.0008C15.727 24.0008 18.4564 22.9382 20.445 21.1039L16.578 18.1055C15.5022 18.8375 14.1132 19.252 12.495 19.252C9.36437 19.252 6.70995 17.1399 5.75754 14.3003H1.76709V17.3912C3.8042 21.4434 7.95339 24.0008 12.4906 24.0008Z" fill="#34A853"/>
<path d="M5.75326 14.3002C5.2506 12.8099 5.2506 11.196 5.75326 9.70569V6.61475H1.76722C0.065222 10.0055 0.065222 14.0004 1.76722 17.3912L5.75326 14.3002Z" fill="#FBBC04"/>
<path d="M12.4906 4.74966C14.2014 4.7232 15.8549 5.36697 17.0939 6.54867L20.52 3.12262C18.3506 1.0855 15.4713 -0.034466 12.4906 0.000808666C7.95338 0.000808666 3.8042 2.55822 1.76709 6.61481L5.75313 9.70575C6.70113 6.86173 9.35996 4.74966 12.4906 4.74966Z" fill="#EA4335"/>
</g>
<defs>
<clipPath id="clip0_1680_2509">
<rect width="24" height="24" fill="white" transform="translate(0.250732)"/>
</clipPath>
</defs>
</svg>
