<svg width="24" height="24" viewBox="0 0 24 24" fill="none" xmlns="http://www.w3.org/2000/svg">
<g clip-path="url(#clip0_1441_96802)">
<path fill-rule="evenodd" clip-rule="evenodd" d="M19.1998 18.5999H16.0171V13.9594C16.0171 12.745 15.5196 11.9158 14.4246 11.9158C13.5874 11.9158 13.1217 12.4754 12.905 13.0147C12.8236 13.208 12.8363 13.4776 12.8363 13.7473V18.5999H9.68337C9.68337 18.5999 9.72395 10.3799 9.68337 9.63281H12.8363V11.0403C13.0229 10.4248 14.0302 9.54668 15.6378 9.54668C17.6325 9.54668 19.1998 10.8363 19.1998 13.6139V18.5999ZM6.49508 8.51114H6.47446C5.4586 8.51114 4.7998 7.82573 4.7998 6.95684C4.7998 6.07112 5.47791 5.3999 6.51439 5.3999C7.54988 5.3999 8.18675 6.06947 8.20671 6.9542C8.20671 7.82309 7.54988 8.51114 6.49508 8.51114ZM5.16308 9.63281H7.96977V18.5999H5.16308V9.63281Z" fill="#222222"/>
</g>
<defs>
<clipPath id="clip0_1441_96802">
<rect width="14.4" height="13.2" fill="white" transform="translate(4.7998 5.3999)"/>
</clipPath>
</defs>
</svg>
