<svg width="16" height="16" viewBox="0 0 16 16" fill="none" xmlns="http://www.w3.org/2000/svg">
<g clip-path="url(#clip0_1431_96089)">
<path fill-rule="evenodd" clip-rule="evenodd" d="M16 8C15.9472 10.8719 15.7009 13.1633 14.4079 14.4079C13.1149 15.6526 10.8895 15.9472 8 16C5.12809 15.9472 2.83672 15.7009 1.59208 14.4079C0.347444 13.1149 0.0527763 10.8895 0 8C0.0527763 5.12809 0.299065 2.83672 1.59208 1.59208C2.8851 0.347444 5.1105 0.0527763 8 0C10.8719 0.0527763 13.1633 0.299065 14.4079 1.59208C15.6526 2.8851 15.9472 5.12809 16 8Z" fill="#D02127"/>
<path d="M6.00833 7.55668V9.42532C6.0078 9.4882 6.02076 9.55047 6.04634 9.60791C6.07192 9.66536 6.10952 9.71665 6.15661 9.75832C6.2037 9.8 6.25919 9.83108 6.31932 9.84949C6.37945 9.86789 6.44282 9.87318 6.50517 9.86501C6.61321 9.85305 6.71299 9.8015 6.78526 9.7203C6.85752 9.63911 6.89715 9.53402 6.89649 9.42532V6.78723C6.89649 6.60765 6.82515 6.43543 6.69817 6.30844C6.57118 6.18146 6.39896 6.11012 6.21938 6.11012V6.11012C6.08301 6.11149 5.95027 6.15427 5.83877 6.23279C5.72727 6.31131 5.64227 6.42187 5.59503 6.54981L4.8124 8.51958C4.80828 8.52154 4.80377 8.52255 4.79921 8.52255C4.79465 8.52255 4.79014 8.52154 4.78602 8.51958C4.78134 8.52228 4.77603 8.5237 4.77063 8.5237C4.76523 8.5237 4.75992 8.52228 4.75524 8.51958L3.97261 6.54981C3.92537 6.42187 3.84037 6.31131 3.72887 6.23279C3.61737 6.15427 3.48463 6.11149 3.34826 6.11012V6.11012C3.17167 6.10888 3.00158 6.17669 2.87426 6.29907C2.74695 6.42146 2.67249 6.58874 2.66676 6.76525V9.40334C2.6661 9.51204 2.70572 9.61712 2.77799 9.69832C2.85025 9.77952 2.95003 9.83107 3.05807 9.84302C3.12042 9.8512 3.1838 9.84591 3.24393 9.8275C3.30406 9.8091 3.35954 9.77801 3.40663 9.73634C3.45372 9.69466 3.49133 9.64337 3.51691 9.58593C3.54249 9.52848 3.55545 9.46622 3.55491 9.40334V7.51271L4.37712 9.5924C4.41549 9.66982 4.47425 9.73529 4.54708 9.78178C4.61991 9.82827 4.70404 9.854 4.79042 9.85621C4.88575 9.86151 4.98022 9.83563 5.05954 9.78248C5.13887 9.72934 5.19873 9.65181 5.2301 9.56163L6.00833 7.55668Z" fill="white"/>
<path d="M13.5798 6.71285C13.4664 6.52423 13.3017 6.37175 13.1049 6.27317C12.8777 6.15787 12.6255 6.10048 12.3707 6.10609H11.377C11.2254 6.10609 11.08 6.16631 10.9728 6.2735C10.8656 6.3807 10.8054 6.52608 10.8054 6.67767V9.43008C10.8054 9.54669 10.8517 9.65853 10.9342 9.74098C11.0167 9.82344 11.1285 9.86976 11.2451 9.86976C11.3617 9.86976 11.4735 9.82344 11.556 9.74098C11.6385 9.65853 11.6848 9.54669 11.6848 9.43008V8.69581H12.3399C12.5994 8.7025 12.8569 8.64829 13.0918 8.53753C13.2931 8.4406 13.4625 8.28802 13.5798 8.09785C13.694 7.88915 13.7516 7.6542 13.7469 7.41634C13.7564 7.17099 13.6986 6.92771 13.5798 6.71285V6.71285ZM12.7312 7.70213C12.6825 7.79056 12.6071 7.86134 12.5158 7.90439C12.4088 7.95514 12.2911 7.97928 12.1728 7.97473H11.7244V6.82717H12.164C12.2824 6.82262 12.4 6.84676 12.507 6.89751C12.5993 6.93694 12.6753 7.00676 12.7224 7.09537C12.7725 7.18843 12.7967 7.29317 12.7928 7.39875C12.7982 7.50346 12.7771 7.60784 12.7312 7.70213V7.70213Z" fill="white"/>
<path d="M9.8516 9.02566H8.81395L9.1613 8.72229C9.3922 8.52926 9.60962 8.32066 9.81203 8.09794C9.94368 7.95707 10.0507 7.79506 10.1286 7.61868C10.1856 7.47904 10.2154 7.32982 10.2165 7.179C10.2223 6.95928 10.1609 6.74303 10.0407 6.55905C9.91272 6.37552 9.73391 6.23339 9.52624 6.15015C9.28535 6.04457 9.02411 5.99352 8.76119 6.00066C8.50311 5.9945 8.24716 6.0487 8.01373 6.15894C7.81049 6.25475 7.63942 6.40749 7.52129 6.59862C7.50157 6.62738 7.48533 6.65837 7.47293 6.69096C7.47058 6.6981 7.47058 6.7058 7.47293 6.71294C7.47293 6.71294 7.47293 6.71294 7.47293 6.71294C7.47293 6.71294 7.47293 6.73932 7.47293 6.75251C7.47293 6.75251 7.47293 6.77889 7.47293 6.79208V6.84485C7.47293 6.96962 7.52249 7.08928 7.61072 7.17751C7.69895 7.26574 7.81861 7.3153 7.94338 7.3153C8.03908 7.31655 8.13279 7.28802 8.21156 7.23367C8.29033 7.17931 8.35026 7.10183 8.38307 7.01192V7.01192V6.98554C8.42127 6.91622 8.47747 6.8585 8.54575 6.81847C8.62152 6.7785 8.70634 6.75881 8.79197 6.76131C8.8762 6.75877 8.95961 6.77848 9.03379 6.81847C9.10425 6.85306 9.16253 6.90826 9.20087 6.97675C9.24328 7.05493 9.2645 7.14285 9.26243 7.23176C9.2633 7.31532 9.24527 7.39799 9.20967 7.47359C9.17004 7.55197 9.11973 7.62448 9.06018 7.68903C8.99422 7.75499 8.91508 7.82973 8.82275 7.90887L7.59164 8.9817C7.53985 9.02653 7.49817 9.08186 7.46936 9.14402C7.44056 9.20617 7.42529 9.27374 7.42456 9.34224V9.395C7.42456 9.52094 7.47459 9.64172 7.56364 9.73077C7.6527 9.81982 7.77348 9.86985 7.89942 9.86985H9.8516C9.91713 9.88897 9.98621 9.89256 10.0534 9.88035C10.1205 9.86814 10.1839 9.84046 10.2385 9.7995C10.2931 9.75855 10.3374 9.70544 10.368 9.64439C10.3985 9.58334 10.4144 9.51602 10.4144 9.44776C10.4144 9.3795 10.3985 9.31218 10.368 9.25113C10.3374 9.19008 10.2931 9.13697 10.2385 9.09601C10.1839 9.05506 10.1205 9.02738 10.0534 9.01517C9.98621 9.00296 9.91713 9.00655 9.8516 9.02566V9.02566Z" fill="white"/>
</g>
<defs>
<clipPath id="clip0_1431_96089">
<rect width="16" height="16" fill="white"/>
</clipPath>
</defs>
</svg>
