<svg width="18" height="18" viewBox="0 0 18 18" fill="none" xmlns="http://www.w3.org/2000/svg">
<path d="M16.3618 17.0575C16.7835 17.4792 17.4343 16.8283 17.0126 16.4158L13.5751 12.9692C14.7809 11.635 15.4475 9.90002 15.4451 8.10167C15.4451 4.0775 12.1726 0.805 8.14847 0.805C4.12431 0.805 0.851807 4.0775 0.851807 8.10167C0.851807 12.1258 4.12431 15.3983 8.14847 15.3983C9.96347 15.3983 11.641 14.7292 12.9243 13.62L16.3618 17.0575ZM1.76756 8.10167C1.76756 4.58167 4.63672 1.72167 8.14756 1.72167C11.6676 1.72167 14.5276 4.58167 14.5276 8.10167C14.5276 11.6217 11.6676 14.4817 8.14756 14.4817C4.63672 14.4817 1.76756 11.6217 1.76756 8.10167Z" fill="#57606A"/>
</svg>
