<svg width="24" height="24" viewBox="0 0 24 24" fill="none" xmlns="http://www.w3.org/2000/svg">
<path d="M21 6.77563C20.3229 7.07852 19.6068 7.27981 18.8737 7.37332C19.6463 6.90328 20.2238 6.15897 20.4971 5.28139C19.7738 5.72139 18.9824 6.03125 18.1571 6.19755C17.6511 5.64344 16.9944 5.25822 16.2722 5.09192C15.55 4.92562 14.7957 4.98594 14.1073 5.26503C13.419 5.54412 12.8284 6.0291 12.4122 6.65694C11.9961 7.28478 11.7737 8.02647 11.7739 8.78564C11.7739 9.08564 11.7986 9.37411 11.8594 9.64872C10.3913 9.5749 8.95503 9.18412 7.64434 8.50193C6.33365 7.81974 5.17811 6.86149 4.25325 5.68985C3.77942 6.52277 3.63294 7.5096 3.84362 8.44941C4.0543 9.38922 4.60631 10.2113 5.38725 10.7483C4.8031 10.7323 4.23128 10.5724 3.72 10.2822V10.3237C3.72098 11.1977 4.0155 12.0446 4.55398 12.722C5.09247 13.3993 5.84203 13.8657 6.6765 14.0426C6.36081 14.1279 6.03546 14.1698 5.709 14.1672C5.47454 14.1715 5.24031 14.1498 5.01038 14.1026C5.24881 14.8538 5.70843 15.5107 6.32594 15.9829C6.94346 16.455 7.68851 16.7193 8.4585 16.7392C7.15231 17.7869 5.54135 18.3553 3.88313 18.3534C3.5805 18.3534 3.29025 18.3395 3 18.3015C4.68737 19.4167 6.65364 20.0067 8.661 19.9999C15.4515 19.9999 19.164 14.2307 19.164 9.22987C19.164 9.06257 19.1584 8.90103 19.1505 8.74064C19.8783 8.20639 20.5051 7.5405 21 6.77563Z" fill="#222222"/>
</svg>
