<svg width="256" height="49" viewBox="0 0 256 49" fill="none" xmlns="http://www.w3.org/2000/svg">
<path d="M181.654 20.2589V34.0806H185.22V20.2589H181.654ZM184.984 14.8685C184.551 14.4259 184.032 14.2046 183.424 14.2046C182.816 14.2046 182.322 14.4259 181.889 14.8685C181.456 15.3111 181.241 15.8265 181.241 16.4161C181.241 17.0058 181.456 17.518 181.889 17.9498C182.322 18.3832 182.833 18.5998 183.424 18.5998C184.015 18.5998 184.551 18.3832 184.984 17.9498C185.418 17.518 185.634 17.0058 185.634 16.4161C185.634 15.8265 185.418 15.3111 184.984 14.8685Z" fill="#15211B"/>
<path d="M198.95 14.731V21.8918C197.901 20.5469 196.409 19.8737 194.475 19.8737C192.542 19.8737 191.026 20.5779 189.708 21.9877C188.392 23.3976 187.733 25.1263 187.733 27.1722C187.733 29.2182 188.392 30.9453 189.708 32.3552C191.026 33.7651 192.615 34.4693 194.475 34.4693C196.336 34.4693 197.901 33.7976 198.95 32.4512V34.0824H202.515V14.731H198.95ZM197.874 29.9781C197.154 30.7055 196.243 31.0691 195.137 31.0691C194.031 31.0691 193.116 30.7055 192.389 29.9781C191.66 29.2491 191.297 28.3144 191.297 27.1722C191.297 26.0301 191.66 25.0938 192.389 24.3664C193.116 23.6375 194.033 23.2738 195.137 23.2738C196.242 23.2738 197.154 23.6375 197.874 24.3664C198.591 25.0938 198.95 26.0286 198.95 27.1722C198.95 28.3159 198.591 29.2491 197.874 29.9781Z" fill="#15211B"/>
<path d="M213.208 14.344C214.406 14.344 215.971 14.5374 217.906 14.9244V34.0823H214.342V17.4949C214.084 17.4764 213.707 17.4671 213.21 17.4671C211.258 17.4671 210.282 18.3523 210.282 20.1212V20.259H212.576V23.687H210.282V34.0807H206.718V23.687H204.729V20.259H206.718V20.1212C206.718 16.2692 208.882 14.344 213.212 14.344H213.208Z" fill="#15211B"/>
<path d="M232.934 21.9861C231.516 20.5762 229.785 19.8721 227.74 19.8721C225.696 19.8721 223.969 20.5762 222.56 21.9861C221.151 23.396 220.446 25.1247 220.446 27.1706C220.446 29.2166 221.151 30.9437 222.56 32.3536C223.969 33.7635 225.696 34.4676 227.74 34.4676C229.785 34.4676 231.516 33.7635 232.934 32.3536C234.353 30.9437 235.061 29.215 235.061 27.1706C235.061 25.1262 234.353 23.396 232.934 21.9861ZM230.421 29.9068C229.702 30.6249 228.808 30.9855 227.74 30.9855C226.673 30.9855 225.782 30.6249 225.074 29.9068C224.364 29.1887 224.01 28.2756 224.01 27.1706C224.01 26.0656 224.364 25.1525 225.074 24.4329C225.782 23.7148 226.672 23.3558 227.74 23.3558C228.809 23.3558 229.702 23.7148 230.421 24.4329C231.139 25.1525 231.498 26.0641 231.498 27.1706C231.498 28.2772 231.139 29.1887 230.421 29.9068Z" fill="#15211B"/>
<path d="M252.58 20.259H256L251.972 34.0823H248.478L245.865 25.7051L243.251 34.0823H239.759L235.698 20.259H239.466L241.831 28.7462L244.348 20.259H247.721L250.236 28.7771L252.58 20.259Z" fill="#15211B"/>
<path d="M162.482 34.4414H157.122C155.95 34.4414 155 33.4912 155 32.3181V26.9556C155 25.7825 155.95 24.8323 157.122 24.8323H162.482C163.654 24.8323 164.604 25.7825 164.604 26.9556V32.3181C164.604 33.4912 163.654 34.4414 162.482 34.4414Z" fill="#15211B"/>
<path d="M173.13 24.832H167.368C166.596 24.832 165.769 24.8104 165.201 24.244L165.186 24.2285C164.632 23.6744 164.604 22.8867 164.604 22.1113C164.604 21.9829 164.604 21.8529 164.604 21.7182V16.3558C164.604 15.1827 163.654 14.2324 162.482 14.2324H157.122C155.95 14.2324 155 15.1827 155 16.3558V21.7182C155 22.8913 155.95 23.8416 157.122 23.8416H162.482C162.541 23.8416 162.636 23.8416 162.695 23.8416C163.498 23.8416 164.301 24.0397 164.875 24.6123C165.452 25.1895 165.646 25.985 165.646 26.8053C165.646 26.8548 165.648 26.9059 165.648 26.9569V32.3194C165.648 33.491 166.598 34.4428 167.77 34.4428H173.13C174.302 34.4428 175.252 33.4925 175.252 32.3194V26.9569C175.252 25.7838 174.302 24.8336 173.13 24.8336V24.832Z" fill="#15211B"/>
<path d="M175.38 18.6664L174.568 18.0861C174.44 17.9932 174.393 17.823 174.46 17.6791L174.871 16.7706C174.966 16.5632 174.828 16.3249 174.602 16.3032L173.609 16.2057C173.451 16.1918 173.326 16.0665 173.311 15.9086L173.213 14.915C173.191 14.6891 172.953 14.5513 172.747 14.6457L171.838 15.059C171.694 15.124 171.524 15.0791 171.433 14.9506L170.851 14.1381C170.72 13.954 170.444 13.954 170.313 14.1381L169.733 14.9506C169.64 15.0791 169.47 15.1255 169.326 15.0605L168.416 14.6473C168.211 14.5529 167.973 14.6906 167.951 14.9166L167.853 15.9101C167.838 16.068 167.714 16.1934 167.556 16.2088L166.563 16.3063C166.338 16.328 166.2 16.5663 166.294 16.7737L166.707 17.6822C166.772 17.8261 166.727 17.9963 166.597 18.0892L165.787 18.6695C165.603 18.8026 165.603 19.0766 165.787 19.2097L166.599 19.79C166.727 19.8813 166.774 20.0516 166.707 20.197L166.296 21.1055C166.202 21.3129 166.339 21.5497 166.565 21.5729L167.558 21.6688C167.716 21.6843 167.841 21.8097 167.857 21.966L167.954 22.9595C167.976 23.187 168.214 23.3232 168.42 23.2304L169.329 22.8172C169.473 22.7506 169.643 22.797 169.734 22.9255L170.316 23.7364C170.447 23.9222 170.723 23.9222 170.854 23.7364L171.436 22.9239C171.527 22.7955 171.697 22.7506 171.841 22.8156L172.751 23.2273C172.956 23.3217 173.194 23.1839 173.216 22.958L173.314 21.9644C173.329 21.8066 173.453 21.6828 173.611 21.6673L174.604 21.5698C174.829 21.5466 174.967 21.3098 174.873 21.1024L174.46 20.1939C174.395 20.0485 174.44 19.8782 174.57 19.7869L175.38 19.205C175.566 19.0735 175.564 18.798 175.38 18.6664ZM172.896 17.9468L170.084 20.7526C170.034 20.8006 169.956 20.8022 169.906 20.7526L168.509 19.3722C168.458 19.3226 168.458 19.2422 168.509 19.1926L169.035 18.6664C169.085 18.6169 169.164 18.6169 169.213 18.6634L169.925 19.3459C169.974 19.3938 170.055 19.3923 170.102 19.3428L172.171 17.2411C172.218 17.1916 172.299 17.19 172.348 17.238L172.896 17.7657C172.949 17.8153 172.949 17.8957 172.898 17.9468H172.896Z" fill="#15211B"/>
<g clip-path="url(#clip0_525_68006)">
<path d="M0.189069 27.0186C0.14532 27.0444 0.107067 27.0791 0.0765768 27.1206C0.046087 27.162 0.0239819 27.2094 0.0115729 27.2597C-0.000836097 27.3101 -0.00329621 27.3626 0.00433858 27.414C0.0119733 27.4653 0.0295476 27.5147 0.0560187 27.5589C1.79279 30.5211 4.428 32.8113 7.55433 34.0756C7.6008 34.0952 7.65062 34.1051 7.70084 34.1046C7.75111 34.104 7.80071 34.0932 7.84679 34.0726C7.89292 34.0521 7.93451 34.0222 7.96928 33.9849C8.00404 33.9474 8.03114 33.9033 8.04911 33.855C8.0855 33.758 8.08348 33.6502 8.0434 33.5548C8.00337 33.4594 7.92847 33.3841 7.83498 33.3451C4.85399 32.1483 2.34046 29.9696 0.685494 27.1482C0.632137 27.0599 0.547217 26.9968 0.449092 26.9726C0.350966 26.9483 0.24752 26.9648 0.161117 27.0186H0.189069Z" fill="#D02127"/>
<path d="M2.25026 13.4389C2.27277 13.3925 2.28604 13.342 2.2893 13.2902C2.29254 13.2385 2.28571 13.1866 2.26919 13.1377C2.25268 13.0887 2.22681 13.0436 2.19312 13.0051C2.15944 12.9666 2.1186 12.9355 2.07305 12.9135C1.98184 12.8687 1.87718 12.8628 1.78174 12.8969C1.68631 12.9311 1.60779 13.0027 1.5632 13.0961C1.0835 14.1037 0.731045 15.1704 0.514457 16.2703C-0.0161192 18.9256 0.249762 21.6845 1.27679 24.1804C2.30381 26.6762 4.04337 28.7911 6.26444 30.2441C8.48551 31.697 11.0829 32.4193 13.7117 32.3149C16.3406 32.2105 18.8764 31.2845 20.9824 29.6597C21.0228 29.6283 21.0567 29.589 21.0823 29.5439C21.1079 29.499 21.1245 29.4492 21.1314 29.3976C21.1383 29.3459 21.1351 29.2934 21.1222 29.2429C21.1093 29.1926 21.0869 29.1452 21.0562 29.1038C20.9947 29.0221 20.9048 28.9684 20.8054 28.9542C20.706 28.94 20.6052 28.9664 20.5245 29.0278C18.6473 30.4749 16.4052 31.3343 14.0666 31.5031C11.7279 31.6718 9.39153 31.1428 7.33691 29.9793C5.28228 28.8158 3.59635 27.067 2.48074 24.9422C1.36514 22.8173 0.867061 20.4063 1.0461 17.9975C1.12101 16.9442 1.3277 15.9054 1.66104 14.9068C1.82996 14.4083 2.02669 13.9203 2.25026 13.4452V13.4389Z" fill="#D02127"/>
<path d="M11.7655 8.77912C11.8147 8.77 11.8616 8.75089 11.9035 8.72289C11.9455 8.6949 11.9816 8.65859 12.0098 8.61608C12.038 8.57356 12.0577 8.52569 12.0678 8.47526C12.0778 8.42482 12.0781 8.37282 12.0685 8.32228C12.0505 8.22406 11.9971 8.1365 11.919 8.07719C11.8409 8.01788 11.7439 7.99121 11.6475 8.00256C8.97757 8.44918 6.57433 9.9307 4.92981 12.1438C3.28529 14.3568 2.52394 17.134 2.80165 19.9066C3.07935 22.6793 4.3751 25.2377 6.42357 27.058C8.4721 28.8782 11.1183 29.8227 13.8205 29.6979L14.3153 29.6599C14.4873 29.6593 14.6586 29.6362 14.8251 29.5913L15.3282 29.5078C15.4907 29.4775 15.6532 29.4391 15.8157 29.3926C15.9144 29.369 16 29.3062 16.0539 29.2178C16.1078 29.1294 16.1257 29.0227 16.1036 28.9208C16.0791 28.8185 16.0166 28.7303 15.9297 28.6748C15.8428 28.6194 15.7382 28.6012 15.6385 28.6241C15.4836 28.6696 15.3282 28.7001 15.1734 28.7307L14.7228 28.8459L14.2649 28.8989H13.792C11.2888 29.0109 8.83851 28.1338 6.94164 26.447C5.0448 24.76 3.84445 22.3905 3.58578 19.8223C3.32711 17.2541 4.02963 14.681 5.54986 12.6286C7.07006 10.5762 9.29331 9.1993 11.7655 8.77912Z" fill="#D02127"/>
<path d="M9.54915 33.9078C9.44855 33.8837 9.3428 33.9 9.25345 33.9533C9.17032 34.0071 9.1103 34.0916 9.08573 34.1895C9.07145 34.2403 9.06736 34.2934 9.07369 34.3458C9.08002 34.3982 9.0967 34.4488 9.12262 34.4943C9.14837 34.5393 9.18252 34.5786 9.22311 34.61C9.2637 34.6413 9.30994 34.664 9.35909 34.6769C9.73586 34.776 10.0976 34.8595 10.4967 34.928C10.8959 34.9966 11.2352 35.0577 11.6416 35.0957C12.0481 35.1337 12.3801 35.1642 12.8016 35.1717C13.2231 35.1792 13.577 35.1717 13.9616 35.1717C14.4392 35.1531 14.9152 35.1049 15.3872 35.0271C15.8601 34.9586 16.3325 34.8595 16.7982 34.7454C17.2638 34.6314 17.7217 34.4943 18.1795 34.3341C18.6341 34.1753 19.0804 33.9924 19.5167 33.7862C19.6074 33.7403 19.6769 33.6594 19.71 33.561C19.7432 33.4627 19.7374 33.3549 19.694 33.2609C19.6521 33.1687 19.5768 33.0971 19.4843 33.0616C19.3918 33.026 19.2894 33.0293 19.1992 33.0708C18.7855 33.2609 18.3573 33.436 17.9285 33.5892C17.4994 33.7417 17.063 33.8713 16.621 33.9775C16.1776 34.0927 15.7343 34.1757 15.2838 34.2437C14.8332 34.3117 14.3825 34.3589 13.9247 34.3808C13.4669 34.4027 13.1863 34.3808 12.824 34.3808C12.4561 34.3747 12.0886 34.3493 11.7232 34.3048C11.3537 34.2667 10.9848 34.2131 10.6298 34.1526C10.2748 34.0922 9.89132 34.0006 9.55139 33.9089L9.54915 33.9078Z" fill="#D02127"/>
<path d="M13.0202 11.9306C11.4845 12.0108 10.0231 12.6371 8.88511 13.7028C7.74709 14.7686 7.00279 16.2079 6.77886 17.7757C6.55499 19.3434 6.86536 20.9427 7.65712 22.3011C8.44895 23.6595 9.67318 24.6931 11.1214 25.2259C12.5696 25.7586 14.1523 25.7575 15.5999 25.2229C17.0474 24.6882 18.2704 23.653 19.0605 22.2935C19.8506 20.9341 20.1589 19.3344 19.9331 17.767C19.7072 16.1994 18.9611 14.7612 17.8218 13.6969C17.1735 13.0915 16.4158 12.6238 15.5918 12.3207C14.7678 12.0176 13.894 11.885 13.0202 11.9306ZM9.04606 14.7702C10.01 13.6796 11.333 12.9972 12.7579 12.8557C14.1828 12.7142 15.6079 13.1237 16.7562 14.0045C17.9045 14.8854 18.694 16.1747 18.9713 17.622C19.2485 19.0692 18.9938 20.571 18.2565 21.8355C17.5192 23.1 16.352 24.0369 14.9818 24.464C13.6116 24.8911 12.1363 24.7781 10.8424 24.1468C9.54862 23.5155 8.52872 22.4111 7.98104 21.0482C7.4333 19.6852 7.39686 18.1612 7.87876 16.7721C8.13891 16.0334 8.53527 15.3536 9.04606 14.7702Z" fill="#D02127"/>
<path d="M17.3055 28.0315C17.2126 28.0739 17.1397 28.1526 17.1029 28.2504C17.0663 28.3482 17.0688 28.4569 17.1099 28.5528C17.151 28.6487 17.2275 28.7238 17.3223 28.7617C17.4172 28.7995 17.5228 28.7969 17.6159 28.7545C19.0328 28.1038 20.2938 27.1401 21.3094 25.9317C21.3424 25.8921 21.3676 25.8464 21.3835 25.7969C21.3993 25.7473 21.4055 25.6951 21.4018 25.6431C21.3981 25.5911 21.3844 25.5404 21.3617 25.4938C21.3389 25.4472 21.3074 25.4057 21.2691 25.3717C21.2308 25.3377 21.1863 25.3117 21.1383 25.2954C21.0903 25.2791 21.0396 25.2726 20.9891 25.2765C20.9387 25.2803 20.8894 25.2944 20.8442 25.3179C20.799 25.3413 20.7588 25.3737 20.7258 25.4132C20.2618 25.9803 19.7366 26.4912 19.1604 26.9358C18.5866 27.3742 17.968 27.7469 17.3156 28.0471L17.3055 28.0315Z" fill="#D02127"/>
<path d="M13.1156 13.8871C11.9357 13.9453 10.8191 14.4536 9.98289 15.3133C9.14668 16.173 8.65067 17.3225 8.59144 18.5382C8.53221 19.7539 8.91396 20.9487 9.66239 21.8904C10.4109 22.8321 11.4725 23.4532 12.6407 23.6328C13.809 23.8125 15.0003 23.5378 15.9829 22.8623C16.9655 22.1869 17.6692 21.1588 17.9569 19.9783C18.2447 18.7978 18.0959 17.5491 17.5397 16.4754C16.9835 15.4015 16.0595 14.5794 14.9475 14.1688C14.3611 13.9502 13.7383 13.8544 13.1156 13.8871ZM10.4322 16.0642C11.0834 15.3222 11.979 14.8561 12.945 14.7564C13.911 14.6568 14.8785 14.9308 15.6594 15.5252C16.4404 16.1196 16.9791 16.9918 17.1708 17.9726C17.3625 18.9533 17.1937 19.9725 16.6969 20.8321C16.2002 21.6917 15.4112 22.3304 14.4831 22.624C13.5551 22.9176 12.5542 22.8452 11.675 22.421C10.7958 21.9966 10.101 21.2507 9.72565 20.3281C9.35034 19.4054 9.32123 18.3719 9.64397 17.4283C9.8197 16.9259 10.0873 16.4628 10.4322 16.0642Z" fill="#D02127"/>
<path d="M4.59177 37.6305C4.50056 37.5857 4.3959 37.5798 4.30047 37.614C4.20504 37.6482 4.12652 37.7198 4.08193 37.8132C4.04036 37.9075 4.03558 38.0146 4.06857 38.1124C4.10156 38.2102 4.16979 38.2912 4.25914 38.3386C4.62848 38.5306 5.00527 38.7057 5.38951 38.8639C5.78083 39.0235 6.16487 39.1762 6.55675 39.3133C6.94869 39.4504 7.35451 39.5795 7.75366 39.6941C8.15282 39.8088 8.55142 39.9072 8.95786 39.9908C9.00735 40.0019 9.05846 40.0029 9.10834 39.9936C9.15816 39.9843 9.20575 39.9649 9.2483 39.9366C9.29084 39.9083 9.32757 39.8715 9.35629 39.8286C9.38501 39.7855 9.40522 39.7371 9.41568 39.686C9.43332 39.5824 9.41177 39.4757 9.35539 39.3879C9.29902 39.3001 9.21219 39.238 9.11271 39.2142C8.72138 39.1307 8.33729 39.0414 7.95268 38.9325C7.56808 38.8236 7.21421 38.702 6.80778 38.5673C6.40134 38.4325 6.06931 38.2931 5.68969 38.1335C5.31013 37.9739 4.95123 37.8063 4.59624 37.6311L4.59177 37.6305Z" fill="#D02127"/>
<path d="M1.54851 32.3103C1.47541 32.2367 1.3773 32.1956 1.27514 32.1956C1.17299 32.1956 1.07488 32.2367 1.00177 32.3103C0.930867 32.3843 0.891113 32.4842 0.891113 32.5882C0.891113 32.6923 0.930867 32.7921 1.00177 32.8662C2.73383 34.5429 4.77617 35.8425 7.00669 36.6873C9.23727 37.5321 11.6102 37.9048 13.9837 37.7831H14.427L14.8775 37.7376L15.3282 37.6845L15.7788 37.6235C15.8589 37.5897 15.9256 37.5289 15.968 37.4511C16.0105 37.3733 16.0261 37.2829 16.0124 37.1948C15.9988 37.1067 15.9566 37.0258 15.8928 36.9655C15.8289 36.9052 15.7472 36.8689 15.6608 36.8625L15.2325 36.9236L14.8043 36.9691L14.3834 37.0071H13.9473C11.6806 37.1209 9.4149 36.7637 7.28486 35.9568C5.15484 35.1499 3.20405 33.9098 1.54851 32.3103Z" fill="#D02127"/>
<path d="M18.8115 13.0957C18.8473 13.1401 18.8916 13.1763 18.9418 13.2018C18.992 13.2274 19.0468 13.2418 19.1028 13.2441C19.1587 13.2464 19.2145 13.2366 19.2665 13.2152C19.3185 13.1939 19.3655 13.1615 19.4046 13.1202C19.4437 13.0789 19.4739 13.0295 19.4932 12.9754C19.5126 12.9213 19.5207 12.8636 19.517 12.806C19.5133 12.7485 19.4979 12.6923 19.4719 12.6413C19.4458 12.5903 19.4095 12.5455 19.3655 12.5098C18.0421 11.1603 16.3281 10.2917 14.4829 10.0354C12.6377 9.77916 10.7618 10.1492 9.13887 11.0895C7.51598 12.0298 6.23436 13.4892 5.48807 15.247C4.74176 17.0047 4.57131 18.9652 5.00251 20.8317C5.43372 22.6981 6.44312 24.3691 7.87796 25.5917C9.31286 26.8143 11.0951 27.5221 12.9551 27.6079C14.8151 27.6938 16.6516 27.153 18.1868 26.0674C19.7219 24.9818 20.8722 23.4105 21.4636 21.5912C21.4966 21.4882 21.4887 21.3758 21.4417 21.2787C21.3947 21.1816 21.3123 21.1076 21.2126 21.0728C21.1631 21.0548 21.1106 21.0473 21.0583 21.0506C21.0059 21.054 20.9548 21.0681 20.9078 21.0922C20.8609 21.1164 20.8191 21.15 20.785 21.1911C20.751 21.2322 20.7253 21.2799 20.7094 21.3314C20.1733 22.9811 19.1304 24.406 17.7385 25.3905C16.3466 26.375 14.6815 26.8656 12.9949 26.7881C11.3083 26.7106 9.69215 26.0691 8.39082 24.9608C7.0895 23.8525 6.17384 22.3377 5.78236 20.6453C5.39086 18.953 5.54484 17.1754 6.22098 15.5813C6.89714 13.9872 8.05873 12.6634 9.52996 11.8101C11.0012 10.9569 12.7021 10.6206 14.3753 10.8521C16.0485 11.0836 17.603 11.8704 18.8037 13.0934L18.8115 13.0957Z" fill="#D02127"/>
<path d="M0.189069 27.0186C0.14532 27.0444 0.107067 27.0791 0.0765768 27.1206C0.046087 27.162 0.0239819 27.2094 0.0115729 27.2597C-0.000836097 27.3101 -0.00329621 27.3626 0.00433858 27.414C0.0119733 27.4653 0.0295476 27.5147 0.0560187 27.5589C1.79279 30.5211 4.428 32.8113 7.55433 34.0756C7.6008 34.0952 7.65062 34.1051 7.70084 34.1046C7.75111 34.104 7.80071 34.0932 7.84679 34.0726C7.89292 34.0521 7.93451 34.0222 7.96928 33.9849C8.00404 33.9474 8.03114 33.9033 8.04911 33.855C8.0855 33.758 8.08348 33.6502 8.0434 33.5548C8.00337 33.4594 7.92847 33.3841 7.83498 33.3451C4.85399 32.1483 2.34046 29.9696 0.685494 27.1482C0.632137 27.0599 0.547217 26.9968 0.449092 26.9726C0.350966 26.9483 0.24752 26.9648 0.161117 27.0186H0.189069Z" fill="#D02127"/>
<path d="M2.25026 13.4389C2.27277 13.3925 2.28604 13.342 2.2893 13.2902C2.29254 13.2385 2.28571 13.1866 2.26919 13.1377C2.25268 13.0887 2.22681 13.0436 2.19312 13.0051C2.15944 12.9666 2.1186 12.9355 2.07305 12.9135C1.98184 12.8687 1.87718 12.8628 1.78174 12.8969C1.68631 12.9311 1.60779 13.0027 1.5632 13.0961C1.0835 14.1037 0.731045 15.1704 0.514457 16.2703C-0.0161192 18.9256 0.249762 21.6845 1.27679 24.1804C2.30381 26.6762 4.04337 28.7911 6.26444 30.2441C8.48551 31.697 11.0829 32.4193 13.7117 32.3149C16.3406 32.2105 18.8764 31.2845 20.9824 29.6597C21.0228 29.6283 21.0567 29.589 21.0823 29.5439C21.1079 29.499 21.1245 29.4492 21.1314 29.3976C21.1383 29.3459 21.1351 29.2934 21.1222 29.2429C21.1093 29.1926 21.0869 29.1452 21.0562 29.1038C20.9947 29.0221 20.9048 28.9684 20.8054 28.9542C20.706 28.94 20.6052 28.9664 20.5245 29.0278C18.6473 30.4749 16.4052 31.3343 14.0666 31.5031C11.7279 31.6718 9.39153 31.1428 7.33691 29.9793C5.28228 28.8158 3.59635 27.067 2.48074 24.9422C1.36514 22.8173 0.867061 20.4063 1.0461 17.9975C1.12101 16.9442 1.3277 15.9054 1.66104 14.9068C1.82996 14.4083 2.02669 13.9203 2.25026 13.4452V13.4389Z" fill="#D02127"/>
<path d="M11.7655 8.77912C11.8147 8.77 11.8616 8.75089 11.9035 8.72289C11.9455 8.6949 11.9816 8.65859 12.0098 8.61608C12.038 8.57356 12.0577 8.52569 12.0678 8.47526C12.0778 8.42482 12.0781 8.37282 12.0685 8.32228C12.0505 8.22406 11.9971 8.1365 11.919 8.07719C11.8409 8.01788 11.7439 7.99121 11.6475 8.00256C8.97757 8.44918 6.57433 9.9307 4.92981 12.1438C3.28529 14.3568 2.52394 17.134 2.80165 19.9066C3.07935 22.6793 4.3751 25.2377 6.42357 27.058C8.4721 28.8782 11.1183 29.8227 13.8205 29.6979L14.3153 29.6599C14.4873 29.6593 14.6586 29.6362 14.8251 29.5913L15.3282 29.5078C15.4907 29.4775 15.6532 29.4391 15.8157 29.3926C15.9144 29.369 16 29.3062 16.0539 29.2178C16.1078 29.1294 16.1257 29.0227 16.1036 28.9208C16.0791 28.8185 16.0166 28.7303 15.9297 28.6748C15.8428 28.6194 15.7382 28.6012 15.6385 28.6241C15.4836 28.6696 15.3282 28.7001 15.1734 28.7307L14.7228 28.8459L14.2649 28.8989H13.792C11.2888 29.0109 8.83851 28.1338 6.94164 26.447C5.0448 24.76 3.84445 22.3905 3.58578 19.8223C3.32711 17.2541 4.02963 14.681 5.54986 12.6286C7.07006 10.5762 9.29331 9.1993 11.7655 8.77912Z" fill="#D02127"/>
<path d="M9.54915 33.9078C9.44855 33.8837 9.3428 33.9 9.25345 33.9533C9.17032 34.0071 9.1103 34.0916 9.08573 34.1895C9.07145 34.2403 9.06736 34.2934 9.07369 34.3458C9.08002 34.3982 9.0967 34.4488 9.12262 34.4943C9.14837 34.5393 9.18252 34.5786 9.22311 34.61C9.2637 34.6413 9.30994 34.664 9.35909 34.6769C9.73586 34.776 10.0976 34.8595 10.4967 34.928C10.8959 34.9966 11.2352 35.0577 11.6416 35.0957C12.0481 35.1337 12.3801 35.1642 12.8016 35.1717C13.2231 35.1792 13.577 35.1717 13.9616 35.1717C14.4392 35.1531 14.9152 35.1049 15.3872 35.0271C15.8601 34.9586 16.3325 34.8595 16.7982 34.7454C17.2638 34.6314 17.7217 34.4943 18.1795 34.3341C18.6341 34.1753 19.0804 33.9924 19.5167 33.7862C19.6074 33.7403 19.6769 33.6594 19.71 33.561C19.7432 33.4627 19.7374 33.3549 19.694 33.2609C19.6521 33.1687 19.5768 33.0971 19.4843 33.0616C19.3918 33.026 19.2894 33.0293 19.1992 33.0708C18.7855 33.2609 18.3573 33.436 17.9285 33.5892C17.4994 33.7417 17.063 33.8713 16.621 33.9775C16.1776 34.0927 15.7343 34.1757 15.2838 34.2437C14.8332 34.3117 14.3825 34.3589 13.9247 34.3808C13.4669 34.4027 13.1863 34.3808 12.824 34.3808C12.4561 34.3747 12.0886 34.3493 11.7232 34.3048C11.3537 34.2667 10.9848 34.2131 10.6298 34.1526C10.2748 34.0922 9.89132 34.0006 9.55139 33.9089L9.54915 33.9078Z" fill="#D02127"/>
<path d="M13.0202 11.9306C11.4845 12.0108 10.0231 12.6371 8.88511 13.7028C7.74709 14.7686 7.00279 16.2079 6.77886 17.7757C6.55499 19.3434 6.86536 20.9427 7.65712 22.3011C8.44895 23.6595 9.67318 24.6931 11.1214 25.2259C12.5696 25.7586 14.1523 25.7575 15.5999 25.2229C17.0474 24.6882 18.2704 23.653 19.0605 22.2935C19.8506 20.9341 20.1589 19.3344 19.9331 17.767C19.7072 16.1994 18.9611 14.7612 17.8218 13.6969C17.1735 13.0915 16.4158 12.6238 15.5918 12.3207C14.7678 12.0176 13.894 11.885 13.0202 11.9306ZM9.04606 14.7702C10.01 13.6796 11.333 12.9972 12.7579 12.8557C14.1828 12.7142 15.6079 13.1237 16.7562 14.0045C17.9045 14.8854 18.694 16.1747 18.9713 17.622C19.2485 19.0692 18.9938 20.571 18.2565 21.8355C17.5192 23.1 16.352 24.0369 14.9818 24.464C13.6116 24.8911 12.1363 24.7781 10.8424 24.1468C9.54862 23.5155 8.52872 22.4111 7.98104 21.0482C7.4333 19.6852 7.39686 18.1612 7.87876 16.7721C8.13891 16.0334 8.53527 15.3536 9.04606 14.7702Z" fill="#D02127"/>
<path d="M17.3055 28.0315C17.2126 28.0739 17.1397 28.1526 17.1029 28.2504C17.0663 28.3482 17.0688 28.4569 17.1099 28.5528C17.151 28.6487 17.2275 28.7238 17.3223 28.7617C17.4172 28.7995 17.5228 28.7969 17.6159 28.7545C19.0328 28.1038 20.2938 27.1401 21.3094 25.9317C21.3424 25.8921 21.3676 25.8464 21.3835 25.7969C21.3993 25.7473 21.4055 25.6951 21.4018 25.6431C21.3981 25.5911 21.3844 25.5404 21.3617 25.4938C21.3389 25.4472 21.3074 25.4057 21.2691 25.3717C21.2308 25.3377 21.1863 25.3117 21.1383 25.2954C21.0903 25.2791 21.0396 25.2726 20.9891 25.2765C20.9387 25.2803 20.8894 25.2944 20.8442 25.3179C20.799 25.3413 20.7588 25.3737 20.7258 25.4132C20.2618 25.9803 19.7366 26.4912 19.1604 26.9358C18.5866 27.3742 17.968 27.7469 17.3156 28.0471L17.3055 28.0315Z" fill="#D02127"/>
<path d="M13.1156 13.8871C11.9357 13.9453 10.8191 14.4536 9.98289 15.3133C9.14668 16.173 8.65067 17.3225 8.59144 18.5382C8.53221 19.7539 8.91396 20.9487 9.66239 21.8904C10.4109 22.8321 11.4725 23.4532 12.6407 23.6328C13.809 23.8125 15.0003 23.5378 15.9829 22.8623C16.9655 22.1869 17.6692 21.1588 17.9569 19.9783C18.2447 18.7978 18.0959 17.5491 17.5397 16.4754C16.9835 15.4015 16.0595 14.5794 14.9475 14.1688C14.3611 13.9502 13.7383 13.8544 13.1156 13.8871ZM10.4322 16.0642C11.0834 15.3222 11.979 14.8561 12.945 14.7564C13.911 14.6568 14.8785 14.9308 15.6594 15.5252C16.4404 16.1196 16.9791 16.9918 17.1708 17.9726C17.3625 18.9533 17.1937 19.9725 16.6969 20.8321C16.2002 21.6917 15.4112 22.3304 14.4831 22.624C13.5551 22.9176 12.5542 22.8452 11.675 22.421C10.7958 21.9966 10.101 21.2507 9.72565 20.3281C9.35034 19.4054 9.32123 18.3719 9.64397 17.4283C9.8197 16.9259 10.0873 16.4628 10.4322 16.0642Z" fill="#D02127"/>
<path d="M4.59177 37.6305C4.50056 37.5857 4.3959 37.5798 4.30047 37.614C4.20504 37.6482 4.12652 37.7198 4.08193 37.8132C4.04036 37.9075 4.03558 38.0146 4.06857 38.1124C4.10156 38.2102 4.16979 38.2912 4.25914 38.3386C4.62848 38.5306 5.00527 38.7057 5.38951 38.8639C5.78083 39.0235 6.16487 39.1762 6.55675 39.3133C6.94869 39.4504 7.35451 39.5795 7.75366 39.6941C8.15282 39.8088 8.55142 39.9072 8.95786 39.9908C9.00735 40.0019 9.05846 40.0029 9.10834 39.9936C9.15816 39.9843 9.20575 39.9649 9.2483 39.9366C9.29084 39.9083 9.32757 39.8715 9.35629 39.8286C9.38501 39.7855 9.40522 39.7371 9.41568 39.686C9.43332 39.5824 9.41177 39.4757 9.35539 39.3879C9.29902 39.3001 9.21219 39.238 9.11271 39.2142C8.72138 39.1307 8.33729 39.0414 7.95268 38.9325C7.56808 38.8236 7.21421 38.702 6.80778 38.5673C6.40134 38.4325 6.06931 38.2931 5.68969 38.1335C5.31013 37.9739 4.95123 37.8063 4.59624 37.6311L4.59177 37.6305Z" fill="#D02127"/>
<path d="M1.54851 32.3103C1.47541 32.2367 1.3773 32.1956 1.27514 32.1956C1.17299 32.1956 1.07488 32.2367 1.00177 32.3103C0.930867 32.3843 0.891113 32.4842 0.891113 32.5882C0.891113 32.6923 0.930867 32.7921 1.00177 32.8662C2.73383 34.5429 4.77617 35.8425 7.00669 36.6873C9.23727 37.5321 11.6102 37.9048 13.9837 37.7831H14.427L14.8775 37.7376L15.3282 37.6845L15.7788 37.6235C15.8589 37.5897 15.9256 37.5289 15.968 37.4511C16.0105 37.3733 16.0261 37.2829 16.0124 37.1948C15.9988 37.1067 15.9566 37.0258 15.8928 36.9655C15.8289 36.9052 15.7472 36.8689 15.6608 36.8625L15.2325 36.9236L14.8043 36.9691L14.3834 37.0071H13.9473C11.6806 37.1209 9.4149 36.7637 7.28486 35.9568C5.15484 35.1499 3.20405 33.9098 1.54851 32.3103Z" fill="#D02127"/>
<path d="M18.8115 13.0957C18.8473 13.1401 18.8916 13.1763 18.9418 13.2018C18.992 13.2274 19.0468 13.2418 19.1028 13.2441C19.1587 13.2464 19.2145 13.2366 19.2665 13.2152C19.3185 13.1939 19.3655 13.1615 19.4046 13.1202C19.4437 13.0789 19.4739 13.0295 19.4932 12.9754C19.5126 12.9213 19.5207 12.8636 19.517 12.806C19.5133 12.7485 19.4979 12.6923 19.4719 12.6413C19.4458 12.5903 19.4095 12.5455 19.3655 12.5098C18.0421 11.1603 16.3281 10.2917 14.4829 10.0354C12.6377 9.77916 10.7618 10.1492 9.13887 11.0895C7.51598 12.0298 6.23436 13.4892 5.48807 15.247C4.74176 17.0047 4.57131 18.9652 5.00251 20.8317C5.43372 22.6981 6.44312 24.3691 7.87796 25.5917C9.31286 26.8143 11.0951 27.5221 12.9551 27.6079C14.8151 27.6938 16.6516 27.153 18.1868 26.0674C19.7219 24.9818 20.8722 23.4105 21.4636 21.5912C21.4966 21.4882 21.4887 21.3758 21.4417 21.2787C21.3947 21.1816 21.3123 21.1076 21.2126 21.0728C21.1631 21.0548 21.1106 21.0473 21.0583 21.0506C21.0059 21.054 20.9548 21.0681 20.9078 21.0922C20.8609 21.1164 20.8191 21.15 20.785 21.1911C20.751 21.2322 20.7253 21.2799 20.7094 21.3314C20.1733 22.9811 19.1304 24.406 17.7385 25.3905C16.3466 26.375 14.6815 26.8656 12.9949 26.7881C11.3083 26.7106 9.69215 26.0691 8.39082 24.9608C7.0895 23.8525 6.17384 22.3377 5.78236 20.6453C5.39086 18.953 5.54484 17.1754 6.22098 15.5813C6.89714 13.9872 8.05873 12.6634 9.52996 11.8101C11.0012 10.9569 12.7021 10.6206 14.3753 10.8521C16.0485 11.0836 17.603 11.8704 18.8037 13.0934L18.8115 13.0957Z" fill="#D02127"/>
<path d="M15.5323 16.7411C15.0749 16.2221 14.4573 15.8824 13.7843 15.7796C13.1114 15.6768 12.4247 15.8173 11.8409 16.1773C11.2572 16.5371 10.8123 17.0943 10.582 17.7539C10.3518 18.4136 10.3502 19.135 10.5777 19.7957C10.8052 20.4563 11.2476 21.0155 11.8299 21.378C12.4121 21.7406 13.0982 21.8842 13.7715 21.7844C14.4449 21.6847 15.064 21.3477 15.5235 20.8309C15.9831 20.314 16.2548 19.6491 16.2926 18.9492C16.3134 18.5477 16.257 18.1459 16.1264 17.767C15.9958 17.3881 15.7936 17.0396 15.5317 16.7416L15.5323 16.7411Z" fill="#D02127"/>
<path d="M14.2617 16.7571C14.5189 16.7571 14.7703 16.8356 14.9842 16.9829C15.198 17.1302 15.3647 17.3394 15.4631 17.5843C15.5615 17.8291 15.5872 18.0985 15.5371 18.3585C15.4869 18.6184 15.3631 18.8572 15.1812 19.0445C14.9994 19.2319 14.7677 19.3596 14.5155 19.4113C14.2632 19.463 14.0018 19.4364 13.7642 19.335C13.5266 19.2336 13.3235 19.0619 13.1806 18.8415C13.0377 18.6211 12.9614 18.362 12.9614 18.0971C12.9614 17.7416 13.0985 17.4008 13.3423 17.1495C13.5861 16.8983 13.9169 16.7571 14.2617 16.7571Z" fill="white"/>
<path d="M25.4052 31.4336V25.9832C27.4886 28.5207 29.2294 29.7895 30.6277 29.7895C31.3168 29.8158 31.9882 29.5614 32.4966 29.0814C32.7391 28.8631 32.9313 28.5918 33.0591 28.2872C33.1869 27.9827 33.2472 27.6525 33.2356 27.3209C33.259 27.0358 33.2162 26.749 33.1109 26.4843C33.0055 26.2195 32.8405 25.9844 32.6296 25.7983C31.9067 25.3395 31.1124 25.0124 30.2817 24.8317C29.2922 24.5893 28.3275 24.2504 27.4004 23.8195C26.7971 23.5081 26.2866 23.0346 25.9229 22.449C25.5379 21.8243 25.3432 21.0952 25.3638 20.3555C25.3369 19.7868 25.4321 19.2189 25.6429 18.6925C25.8535 18.1661 26.1744 17.6941 26.5825 17.3103C27.4288 16.5476 28.5247 16.1448 29.6483 16.1834C30.8236 16.1913 31.9625 16.604 32.884 17.3558V16.3609H34.6421V20.9264C32.714 19.0691 31.0889 18.1479 29.7741 18.1479C29.1211 18.1047 28.4751 18.3076 27.9566 18.7188C27.7637 18.8783 27.6073 19.0798 27.4987 19.3089C27.3902 19.5379 27.3322 19.7889 27.3288 20.0438C27.3228 20.427 27.4339 20.8025 27.6464 21.1171C27.8587 21.413 28.1446 21.6444 28.4737 21.787C29.1211 22.0269 29.7822 22.2253 30.4533 22.381C31.4079 22.6199 32.3399 22.9458 33.2384 23.3551C33.8599 23.7096 34.3719 24.2373 34.7159 24.8777C35.1432 25.6045 35.361 26.4415 35.3437 27.291C35.3578 27.884 35.2477 28.4732 35.0208 29.0184C34.7939 29.5636 34.4556 30.052 34.0289 30.4502C33.1484 31.2887 31.9849 31.7394 30.7865 31.7061C29.452 31.7086 28.1682 31.1793 27.2036 30.229V31.4319L25.4052 31.4336Z" fill="#D02127"/>
<path d="M42.4559 31.4343V24.5829L38.1267 18.2949H36.354V16.4451H39.1978L43.6964 22.9388L46.6514 18.3255H44.8122V16.4451H49.8944L44.6395 24.6134V29.5614H46.6341V31.4343H42.4559Z" fill="#D02127"/>
<path d="M52.7361 31.4343V18.3255H50.6621V16.4451H55.6336L62.0456 28.082V18.3255H59.9407V16.4451H63.7744V31.5961H61.558L54.5402 18.7898V29.5625H56.6158V31.4354L52.7361 31.4343Z" fill="#D02127"/>
<path d="M69.8769 31.4343V18.3255H66.8773V22.1316H65.0825V16.4451H76.9022V22.1391H75.0995V18.3329H72.0647V29.5614H73.9704V31.4343H69.8769Z" fill="#D02127"/>
<path d="M79.8793 31.4343V18.3255H78.2983V16.4451H82.0884V29.5614H83.6537V31.4343H79.8793Z" fill="#D02127"/>
<path d="M85.4121 31.4343V29.5614L93.2061 18.3277H87.5546V20.9541H85.7738V16.4451H96.027V18.1048L88.0422 29.5614H94.4242V26.6689H96.2269V31.4343H85.4121Z" fill="#D02127"/>
<path d="M99.9351 31.4343V18.3255H98.0513V16.4451H110.151V20.9518H108.349V18.3255H102.136V22.7561H107.536V24.6572H102.136V29.5597H108.348V26.844H110.151V31.4112L99.9351 31.4343Z" fill="#D02127"/>
<path d="M113.579 31.4343V18.3255H111.541V16.4451H116.512L122.858 28.082V18.3255H120.775V16.4451H124.616V31.5961H122.4L115.382 18.7898V29.5625H117.45V31.4354L113.579 31.4343Z" fill="#D02127"/>
<path d="M128.947 13.8108H127.98C127.156 13.8108 126.487 14.4995 126.487 15.3489V16.3456C126.487 17.1951 127.156 17.8837 127.98 17.8837H128.947C129.772 17.8837 130.44 17.1951 130.44 16.3456V15.3489C130.44 14.4995 129.772 13.8108 128.947 13.8108Z" stroke="#D02127" stroke-width="0.5" stroke-miterlimit="10"/>
<path d="M129.583 16.9775H129.222C129.19 16.9793 129.158 16.9725 129.129 16.9579C129.101 16.9432 129.077 16.9212 129.059 16.894L128.571 16.133L128.512 16.0719H128.232V17.0006H127.744V14.5948H128.483C128.617 14.5907 128.752 14.6086 128.882 14.6478C128.983 14.6727 129.078 14.7194 129.161 14.7849C129.232 14.8423 129.285 14.9187 129.317 15.0056C129.353 15.0921 129.37 15.1857 129.368 15.2798C129.375 15.4338 129.328 15.5854 129.235 15.7061C129.188 15.7624 129.136 15.8134 129.079 15.8582C129.01 15.9037 128.935 15.9372 128.856 15.9572L128.937 16.0183C128.961 16.0429 128.981 16.071 128.996 16.1019L129.583 16.9775ZM128.483 15.7292C128.551 15.7419 128.621 15.7419 128.689 15.7292C128.745 15.7092 128.797 15.6811 128.845 15.6456C128.882 15.6077 128.91 15.5606 128.926 15.5085C128.938 15.4533 128.938 15.3961 128.926 15.3409C128.928 15.2894 128.919 15.2382 128.9 15.1907C128.881 15.1433 128.851 15.1009 128.814 15.0667C128.71 14.9925 128.585 14.9575 128.46 14.9676H128.18V15.7286L128.483 15.7292Z" fill="#D02127"/>
</g>
<path d="M143 0V48.5" stroke="black" stroke-width="0.2"/>
<defs>
<clipPath id="clip0_525_68006">
<rect width="131" height="32" fill="white" transform="translate(0 8)"/>
</clipPath>
</defs>
</svg>
